<svg xmlns="http://www.w3.org/2000/svg" viewBox="0 0 730.1 503.6">
  <path fill="black" d="M365.1,503.6h-.1c-20.6-.3-40.8-9.3-59-18.2-66-32-134-61.4-197.8-97.9-27.7-15.8-54.5-36.8-66.1-67.6-3.6-9.5-6.7-19.6-9.7-29.3-4.7-15-9.1-30.1-13.3-45.3-4-14.3-7.8-28.8-10.9-43.4C3.6,181.6-.6,152.7,0,132.2c1.6-45.2,27.6-65.1,82.9-83.6C180.1,16.2,272.6,0,365.1,0s184.9,16.2,282.1,48.6c55.3,18.4,81.3,38.4,82.9,83.6.7,20.6-3.5,49.5-8,69.9-3.2,14.5-7,29-10.9,43.4-4.2,15.2-8.6,30.3-13.3,45.3-3,9.7-6.1,19.8-9.7,29.3-11.6,30.8-38.4,51.8-66.1,67.6-63.7,36.4-131.7,65.9-197.8,97.9-18.2,8.8-38.4,17.9-59,18.2h-.1Z"/>
</svg>
