<?xml version="1.0" encoding="UTF-8"?>
<svg id="Layer_1" xmlns="http://www.w3.org/2000/svg" version="1.1" viewBox="0 0 730.1 503.6">
  <!-- Generator: Adobe Illustrator 29.4.0, SVG Export Plug-In . SVG Version: 2.1.0 Build 152)  -->
  <defs>
    <style>
      .st0, .st1, .st2 {
        fill-rule: evenodd;
      }

      .st0, .st3 {
        fill: #1d283e;
      }

      .st1, .st4 {
        fill: #ded2c0;
      }

      .st2 {
        fill: #a93b24;
      }
    </style>
  </defs>
  <path class="st1" d="M365.1,503.6h-.1c-20.6-.3-40.8-9.3-59-18.2-66-32-134-61.4-197.8-97.9-27.7-15.8-54.5-36.8-66.1-67.6-3.6-9.5-6.7-19.6-9.7-29.3-4.7-15-9.1-30.1-13.3-45.3-4-14.3-7.8-28.8-10.9-43.4C3.6,181.6-.6,152.7,0,132.2c1.6-45.2,27.6-65.1,82.9-83.6C180.1,16.2,272.6,0,365.1,0s184.9,16.2,282.1,48.6c55.3,18.4,81.3,38.4,82.9,83.6.7,20.6-3.5,49.5-8,69.9-3.2,14.5-7,29-10.9,43.4-4.2,15.2-8.6,30.3-13.3,45.3-3,9.7-6.1,19.8-9.7,29.3-11.6,30.8-38.4,51.8-66.1,67.6-63.7,36.4-131.7,65.9-197.8,97.9-18.2,8.8-38.4,17.9-59,18.2h-.1Z"/>
  <path class="st2" d="M86.8,60.1C30.6,78.8,10.4,97.2,12.1,141.4c.6,14.9,3.3,35.7,6.2,50.4,7.9,40,29.1,108,35.1,123.9,10,26.5,33.5,45.7,60.8,61.3,60.9,34.8,132.8,66.4,197,97.5,22.9,11.1,38.5,16.8,53.9,16.9,15.4-.2,30.9-5.8,53.9-16.9,64.2-31.1,136.2-62.7,197-97.5,27.3-15.6,50.8-34.8,60.8-61.3,6-15.9,27.1-83.9,35.1-123.9,2.9-14.7,5.6-35.5,6.2-50.4,1.7-44.2-18.5-62.6-74.7-81.4-96-32-187.1-48-278.2-48S182.8,28.1,86.8,60.1h0Z"/>
  <path class="st4" d="M163.4,348.2c0-.7,0-1.3.1-1.9.2-.6.5-1.2.8-1.7.3-.5.7-1.1,1.1-1.6.3-.5.7-.9,1-1.4.3-.5.7-.9,1.1-1.4.1-.1.2-.2.2-.3,0,0,.1-.1.2-.3.7-.6,1.3-.7,1.9-.4.5.3,1.1.4,1.6.6.5.2,1,.4,1.5.7,1.2.7,2.5,1.4,3.8,1.9,1.3.5,2.8.9,4.2,1.4.3,0,.4.2.7.2.2,0,.4.1.7.2,1.7.7,3.4,1.3,5.2,1.7,1.7.4,3.6.7,5.5,1,1.2.2,2.8,0,4.6-.3,1.1-.2,2-.5,2.9-.7.9-.3,1.9-.5,2.9-.9.2,0,.5-.2.7-.3,1.3-.9,2.4-1.8,3.6-2.7,1.1-.9,2.2-1.9,3.1-3,.5-.5.8-1.1,1.1-1.7.3-.6.6-1.1,1-1.7,1.2-1.9,2.2-3.9,2.8-6.1.8-3,.8-6.1.1-9.3-.3-1.7-.9-3.2-1.9-4.5-.1-.2-.2-.3-.2-.5-.4-.9-.8-1.8-1.4-2.6-.6-.8-1.2-1.6-1.8-2.5,0-.1-.2-.2-.4-.4-.1-.1-.3-.2-.4-.4-1-.8-2-1.6-3-2.5-.4-.3-.8-.6-1.2-.9-.4-.3-1-.5-1.6-.6-.3,0-.6-.3-1.1-.5-1.1-.5-2.3-.4-3.5,0-1.3.4-2.2,1.1-2.9,2.1-.7,1.1-1.1,2.2-1.1,3.3,0,.5,0,1,0,1.6,0,.6,0,1.1-.2,1.6,0,.4-.1.8-.2,1.2,0,.4,0,.9.2,1.3.1.3.2.6.2.9,0,.3,0,.6,0,.9-.1,1.5-.2,3-.3,4.5,0,1.5,0,3,.2,4.5.1,1.4.2,2.8.2,4.2,0,1.5-.8,2.3-2.5,2.5-.9,0-1.8.2-2.6.3-.8,0-1.7.1-2.6,0-.4,0-.8-.1-1.1,0-.4,0-.7,0-1.1.1-.5,0-.9-.2-1.1-.6-.1-.3-.3-.5-.4-.7-.2-.2-.2-.5-.2-.8,0-.9,0-1.7,0-2.5,0-.8,0-1.6,0-2.5v-2.9c0-1,0-1.9-.2-2.9,0-.7,0-1.4,0-2.2,0-.8,0-1.5,0-2.2,0-.2,0-.4,0-.6,0-.2,0-.4,0-.6-.1-.4-.2-.7-.2-1.1,0-.4,0-.8,0-1.2,0-.5,0-1,0-1.4,0-.4,0-.8,0-1.3,0-.7-.2-1.4-.2-2,0-.7,0-1.3,0-2v-10.3c0-1.1,0-2.3,0-3.4,0-1.1,0-2.3,0-3.4s0-1.7,0-2.6c0-.8.1-1.7.2-2.6,0-.5,0-1,0-1.4,0-.4,0-.9,0-1.4,0-2,.2-4,.3-5.9,0-.9,0-1.8,0-2.7,0-.5.1-1,.2-1.5,0-.5,0-1,0-1.5,0-.8.6-1.3,1.5-1.7.7-.3,1.4-.6,1.9-.6,1.3,0,2.7-.4,4.2-1,.4-.2.9-.2,1.3-.2.4,0,.9-.1,1.3-.1.8,0,1.2,0,1.3,0,1-.4,2-.6,3-.7,1-.1,2-.2,3-.2.4,0,.7-.1,1-.1.3,0,.6,0,1-.1,1.9-.3,3.6-.3,5.1.1.7.2,1.3.4,2.1.5.7.1,1.4.3,2.1.5,1.8.5,3.2,1.4,4.3,2.7.4.4.7.9,1.1,1.3.3.4.7.8,1,1.3.9,1,1.5,2.2,2,3.5.5,1.3.9,2.5,1.4,3.9v2.4c0,.7,0,1.4-.1,2.2-.1.9-.3,1.7-.4,2.6-.1,1.2-.4,2.3-.9,3.5-.4,1.2-.9,2.4-1.5,3.6-.2.4-.5.8-.8,1.2-.3.4-.6.8-.9,1.3-.5.8-1,1.6-1.5,2.5-.3.5-.3,1.1-.3,1.6,0,.5.4.9,1,1.4.9.7,1.8,1.5,2.7,2.3.7.7,1.3,1.4,1.9,2,.6.7,1.2,1.3,1.8,2.2.4.7.8,1.4,1.2,2,.4.6.8,1.3,1.2,2,.8,1.4,1.5,2.8,2,4.2.5,1.4,1,2.9,1.3,4.4.2,1.2.4,2.5.4,3.7,0,1.3,0,2.5-.2,3.8-.2.9-.1,1.4-.1,1.7,0,1,0,1.9-.2,2.7-.2.8-.5,1.6-.7,2.5,0,.3-.1.6-.4.9,0,.2-.2.4-.3.6,0,.2-.1.4-.2.6,0,.5-.2.9-.4,1.3-.2.4-.4.8-.6,1.1-.9,1.6-1.8,3.3-2.8,4.9-1.4,2.4-3.2,4.2-5.3,5.9-1.4,1.1-2.8,2.1-4.3,3.1-.7.4-1.4.9-2.1,1.2-.7.3-1.4.7-2.2,1-1.2.5-2.5,1.1-3.7,1.6-1.2.5-2.6.8-4,1-.5,0-.9.2-1.3.2s-.9,0-1.3,0c-.8,0-1.5,0-2.1,0s-1.4,0-2.1,0c-1,0-2,0-3,0-1,0-1.9-.2-2.9-.4-1.6-.3-3.2-.6-4.8-.9-1.3-.3-2.5-.6-3.6-.9-1.1-.4-2.2-.8-3.3-1.2-1.2-.5-2.3-.9-3.5-1.4-1.5-.6-3-1.2-4.4-1.9-.1-.1-.3-.2-.6-.3-.2,0-.4-.1-.5-.3-1-.2-1.8-.6-2.5-1-.7-.4-1.5-.8-2.3-1.3h0ZM506.9,338.9c-.8.4-1.6.6-2.3.7-1,0-2.1,0-3.2,0-1.1,0-2.1,0-3.2,0-.6,0-1,0-1.2,0-.5,0-.8-.3-1.1-.6-.2-.3-.4-.5-.6-.8-.3-.8-.9-1.6-1.5-2.4-.6-.8-1.3-1.6-2-2.3-.1-.1-.2-.2-.2-.3-.6-.9-1.2-1.8-1.7-2.7-.6-.9-1.2-1.9-1.7-2.8-.5-.7-.9-1.5-1.4-2.2-.5-.7-1-1.4-1.5-2.2-.2-.4-.5-.7-.7-1.1-.2-.3-.4-.8-.6-1.2-.2-.4-.6-.8-1.1-1.1-.5-.3-1.1-.6-1.6-.8-.2-.2-.5-.1-.8,0-.6.2-.9.4-1,.9-.1,1-.3,2.1-.5,3.2-.2,1.1-.2,2.2-.2,3.3,0,1,0,2.1,0,3,0,1,0,2,.2,3.1.1.9.2,1.8.2,2.6,0,.8-.1,1.7-.4,2.5-.1.5-.5.6-1,.7-.2,0-.4,0-.6,0-.2,0-.4,0-.6,0-2.1-.3-4.1-.5-6.1-.8-.9-.1-1.8-.6-2.4-1.3-.3-.6-.4-1.2-.4-1.8s0-1.2.1-1.8c0-.6,0-1.2,0-1.7,0-.5.2-1.1.2-1.7,0-.9,0-1.8,0-2.8,0-1,.1-2.1.2-3.1,0-1,0-2.1,0-3.1,0-.3.1-.5.1-.8s0-.6,0-.9c-.1-1.1-.2-2.1-.2-3.2,0-1,.1-2,.2-3,.1-.8.1-1.6.1-2.4v-2.5c0-1.5,0-3,0-4.4,0-1.5-.1-2.9-.2-4.4-.1-1.6-.1-3.2,0-4.7.1-1.5.3-3,.4-4.5,0-.2,0-.4,0-.7-.2-1.1-.3-2-.1-2.7.2-.8.2-1.7,0-2.7,0-.4,0-.8,0-1.1,0-.3,0-.7.2-1.1,0-.4.5-.5,1.3-.3.2,0,.3.1.6.2.2,0,.4.2.5.3,1.3.7,2.5,1.3,3.6,1.8,1.1.5,2.3.9,3.6,1.4,1,.4,2,.8,3,1.2,1,.4,2,.9,3,1.3,1.6.7,3.1,1.5,4.6,2.1,1.5.7,3,1.2,4.5,1.7,2.7,1,4.8,2.2,6.3,3.7.9,1,1.6,2,1.9,3.1.1.5.2,1,.4,1.5.1.4.3.9.4,1.5.1.6.2,1.2.2,1.7,0,.6,0,1.2,0,1.7,0,1,0,2.1,0,3.2,0,1.8-.4,3.5-1.3,5.1-.5,1-1.5,2-3,2.9-1,.6-1.8,1.2-2.6,1.7-1.1.8-1.5,1.8-1.3,2.8,0,.4.1.7.1,1s0,.6.2,1c.1.3.3.6.5.9.2.4.5.7.9,1.1.6.7,1.1,1.3,1.6,2,.4.7.9,1.4,1.3,2,1.2,1.8,2.5,3.6,3.8,5.4.4.6.9,1.2,1.3,1.8.4.5.7,1,1.1,1.5.3.5.7.9,1.1,1.4.2.3.2.5.3.6,0,0,0,.4,0,.8h0ZM495.9,332.3s0,0-.1,0c0,0,0,0,0,.1,0,0,0,0,0,.1.2.1.3.2.4.3,0,0,.3.3.5.5-.2-.4-.2-.6-.3-.7,0,0-.3-.1-.6-.2,0,0,.2-.2.2-.3h0ZM479.3,303.2c0,.4.1.9.1,1.4s.1,1,.2,1.5c.2.9.7,1.7,1.6,2.3.9.6,1.9,1,3.2,1,1.4,0,2.6-.3,3.6-.9.6-.3,1.1-.7,1.6-1,.5-.4.8-.9.9-1.4.2-.8.3-1.6.4-2.4.2-.8,0-1.6-.6-2.5,0,0,0-.3,0-.6-.1-.9-.7-1.7-1.7-2.6-.7-.6-1.5-1.3-2.4-1.8-.8-.5-1.8-1-2.8-1.4-1.6-.7-2.6-.7-3,.2-.2.3-.2.7-.3,1,0,.3-.1.7-.2,1.1-.1,1-.2,2-.2,3,0,1-.2,2-.3,3.1h0ZM472.7,289.8v-2.3s-.1-.2-.4-.6c0,.6-.2,1-.3,1.4-.2.4,0,.9.3,1.6.1,0,.3,0,.4-.1h0ZM470.3,320.6c-.3.2-.4.4-.4.5,0,.6,0,1.2,0,1.8,0,.6,0,1.2.2,1.8.1-.6.3-1.3.4-1.9.1-.7.1-1.4,0-2.2h0ZM476,297.9v-2.5c-.2.5-.3.9-.4,1.2-.2.3-.2.7,0,1.2.1,0,.3.1.4.2h0ZM471.3,330.9c.1-.4.3-.7.4-.9.1-.3.1-.5,0-.8,0-.2-.2-.3-.6-.3-.1.6-.2,1-.2,1.2s.1.4.4.8h0ZM495.8,306.9c.4-.6.4-1.1,0-1.6,0,.4-.2.8-.2,1.3,0,0,0,.1,0,.2,0,0,0,.1,0,.2h0ZM497,334.7c0,0,.1,0,.2,0,0,0,.1,0,.2,0-.1-.2-.2-.4-.3-.6,0,0-.2,0-.2,0,0,0,0,.3.2.7h0ZM472,292.1s0,0-.1,0c0,0,0,0,.1,0h0ZM471.3,328.2s0,0,0,0v-.2c0,0,0,0,0,0v.2h0ZM472,291.2h0c0-.1-.1-.1-.1,0s0,0,.1.1h0ZM478.4,337.3h0c0,0,0,0-.1,0,0,0,0,0,.1,0h0ZM531.9,326.1v-2c0-1,0-1.9,0-2.9,0-1-.1-1.9-.2-2.8,0-.4,0-.6,0-.8,0-.6,0-1.1,0-1.6-.1-.5-.3-1-.6-1.4-.5-.8-1-1.4-1.5-2.1-.1-.2-.3-.3-.4-.5,0-.1-.2-.3-.4-.5-.8-.6-1.5-1.2-2.1-1.9-.6-.7-1.1-1.4-1.8-2.1-1.2-1.3-2.4-2.5-3.6-3.8-.9-.9-1.8-1.8-2.7-2.8-.9-1-1.8-2-2.6-3-.5-.6-1-1-1.3-1.6-.4-.6-.7-1.1-1.2-1.6-1-1.1-2-2.3-3-3.5-.3-.4-.5-.8-.4-1.2,0-.4.3-.7.9-.9.4-.1.8-.3,1.3-.4.4-.2.9-.3,1.3-.4.8-.2,1.6-.3,2.4-.5.8-.2,1.6-.5,2.4-.8,0,0,0,0,.1,0,1-.2,1.6-.4,1.9-.6.3-.1.8,0,1.3.7.7.8,1.4,1.6,2.2,2.4.8.8,1.5,1.6,2.3,2.4.4.4.7.7,1,1.1.3.4.6.7.9,1.2.6.8,1.2,1.7,1.9,2.3.7.7,1.4,1.4,2.2,2.1,1,.9,2,1.9,3,2.8.3.2.5.4.7.6.2.2.5.4.8.5.3.3.8.2,1.6-.3.3-.2.5-.4.6-.7.2-.2.3-.4.4-.7,1.4-2.7,2.9-5.5,4.4-8.4,2.1-4.3,4.2-8.7,6.4-13.3,1-2.2,2-4.5,3-6.9.6-1.3,1.3-2.6,2-3.9.3-.5.7-1,1.2-1.4,1.3-.9,2.5-1.9,3.8-2.9,1.3-1,2.6-1.9,4-2.7.4-.2.7-.4,1-.5.3-.2.6-.3.9-.4.5-.2.9-.1,1,.2.2.3,0,.8-.2,1.4-.6,1-1.1,2-1.5,3.1-.4,1-.8,2-1.4,3-.4.8-.9,1.7-1.3,2.6-.4.9-.7,1.7-1.1,2.4-.5,1.1-1,2.1-1.4,3.1-.4,1-.8,2-1.2,3-.3.8-.6,1.6-1,2.4-.4.8-.8,1.6-1.1,2.4-2.1,4.7-4.1,9.4-6.1,13.8-.9,1.9-1.8,3.8-2.7,5.6-.6,1.2-1.2,2.4-1.8,3.6-.6,1.2-1.2,2.4-1.7,3.6-.5,1.2-.9,2.3-1.3,3.4-.3,1.1-.5,2.1-.5,3.1-.2,4-.3,7.9-.3,11.7v3c0,1,0,2-.1,3,0,.7-.5,1.2-1.5,1.4-1.6.3-3.1.5-4.6.8-.4,0-.8.2-1.3.3-.4.1-.9.2-1.3.3-.5.1-.9.2-1.1,0-.2,0-.3-.3-.4-.6-.2-.8-.4-1.7-.4-2.5,0-1.4,0-2.8,0-4.3,0-1.5,0-2.9,0-4.3,0,0,0,0-.1,0h0ZM548,292.8c.1-.1.2-.2.3-.3,0,0,0-.1.2-.3.3-.5.6-1,.8-1.5.2-.5.4-1,.6-1.6.1-.4.3-.9.6-1.4.3-.5.6-1,.8-1.5,0-.3,0-.4-.1-.4-.4,0-.6.3-.7.5-.8,2.1-1.7,4.2-2.6,6.2,0,0,0,0,.1,0,0,0,0,.1.1.1h0ZM521.4,292.3c.2.3.3.7.6,1,.2.3.4.6.6,1,.6-.1.8-.2.8-.1,0,0,.2,0,.4,0-.2-.5-.5-1-1-1.4-.5-.4-1.1-.7-1.7-.8,0,.2.1.3.2.4h0ZM552.7,277.2s0,0-.1,0c-.6,1-1.1,2-1.7,3-.5,1-1,2-1.3,3.1h0c1-.9,2.1-3,3.2-6.2,0,0,0,0-.1,0h0ZM537.8,330.6c0-.7.1-1.4,0-2,0-.6-.1-1.2-.2-1.8,0,0-.1-.2-.4-.3-.4,1.6-.2,3,.6,4.1h0ZM518.8,297.7c-.2.3-.3.5-.2.7,0,.1.2.2.2.3.3.3.6.7.9.9.3.3.8.4,1.4.5.2-.6,0-1-.4-1-.4,0-.7-.1-.9-.3-.2-.2-.4-.4-.6-.6,0,0-.1-.2-.2-.3,0,0-.1-.2-.3-.3h0ZM531.4,310.4c-.4.7,0,1.2.9,1.5,0-.1,0-.3,0-.5s0,0-.1-.1c-.2-.3-.4-.6-.7-.8h0ZM538.9,316c-.4.4-.6.6-.6.7,0,0,.1.2.5.4.3-.4.3-.8.1-1.1h0ZM370.6,312.9c1.1,1.1,1.3,2.4.4,3.7-.7,1.1-1.5,2.2-2.2,3.3-.6.9-1.3,1.6-2,2.4-.7.7-1.5,1.4-2.3,2.1-.7.6-1.4,1.1-2.1,1.7-.7.6-1.5,1.1-2.3,1.6-.6.4-1.2.7-1.8.9-.6.3-1.2.5-1.9.7-3,.9-6.3,1-9.9.7-.3,0-.6,0-.9-.2-1.2-.5-2.3-1-3.5-1.4-1.1-.4-2.2-1-3.3-1.8-.4-.3-.8-.7-1.2-1.1-.2-.1-.3-.3-.4-.4,0,0-.2-.2-.3-.3-.9-.6-1.6-1.3-2.1-2.1-.5-.8-1-1.7-1.6-2.6-.6-.9-1.1-1.8-1.6-2.8-.5-1-.9-1.9-1.2-3-.2-.7-.3-1.3-.5-1.8-.7-1.2-1.2-2.6-1.4-4-.2-1.4-.3-2.8-.4-4.2,0-.8-.2-1.6-.3-2.4-.1-.8-.2-1.7-.2-2.5,0-.9.2-1.7.3-2.5,0-.3,0-.6,0-.8,0-.2,0-.5,0-.8,0-1.6.1-3.2.3-4.8.2-1.6.4-3.2.7-4.8.1-.8.2-1.6.4-2.4.2-1.4.5-2.8.7-4.1.2-1.4.5-2.7.9-4.1.7-2.9,2-5.6,3.6-8,.7-1.1,1.4-2.3,2.2-3.4.4-.6.8-1.1,1.3-1.5.4-.4.9-.9,1.3-1.4,1.5-1.8,3.4-3.2,5.5-4.6,2.2-1.4,4.5-2.3,7-2.6.4,0,.8,0,1.2,0,.4,0,.8,0,1.2,0,.7.1,1.1.3,1.2.3,1.8.1,3.4.5,4.8,1.3,1.5.8,2.9,1.7,4.3,2.8,1,.8,1.9,1.8,2.7,2.7.8.9,1.6,1.9,2.4,3,.2.3.4.6.6.9.1.3.3.6.4,1,.1.4.1.7,0,.9-.1.3-.2.5-.4.8-.1.2-.3.5-.5.8-1.4,1.7-3.2,3.1-5.3,4.4-1.1.7-2,.7-2.9-.4-.2-.2-.4-.5-.7-.7-.3-.2-.5-.5-.6-.8-.3-.6-.6-1.1-1.1-1.6-.4-.4-.9-.9-1.3-1.4-.7-.9-1.6-1.3-2.7-1.4-1.6,0-2.9.2-4,.9-1.5,1-2.8,2.1-3.9,3.3-1.1,1.3-2,2.7-2.8,4.4-.1.3-.3.6-.4.9-.1.3-.2.6-.4,1-.6.9-1,1.9-1.1,3.1,0,0-.1.4-.3.9-.5,1.3-.9,2.7-1.2,4-.3,1.4-.6,2.7-.8,4.1,0,.4-.1.9-.1,1.4v6.1c0,.9.1,1.8.2,2.7,0,.7.1,1.5.2,2.2,0,.7.2,1.5.3,2.2,0,.4,0,.9,0,1.3,0,.4,0,.9.2,1.4.1.7.3,1.3.4,2,.1.7.4,1.3.8,1.9.5.9.8,1.9,1.3,2.7,1.1,2,2.6,3.3,4.4,4.2,1.8.9,3.7,1.2,5.7.9,1.2-.2,2.1-.7,2.9-1.4.9-.8,1.7-1.6,2.5-2.4.8-.8,1.4-1.8,1.9-2.9.2-.5.6-1,1-1.6.7-1,1.6-1.4,2.9-.9.4.2.9.3,1.3.5.4.2.8.5,1.2.9.4.4.7.7,1.1.9.3.3.7.5,1.1.8.3.2.5.5.8.8h0ZM352.1,255.7h.1c0,0,0,0-.1,0h0ZM348.2,262.1c-1.3.6-2.1,1.2-2.4,1.8.4.1.7.2.8.1.5-.3,1.1-.9,1.7-1.9h0ZM345.4,259c-1.7.5-2.8,1.4-3.4,2.9.6-.6,1.2-1.1,1.7-1.5.6-.4,1.1-.9,1.7-1.4h0ZM339.4,284.8c0,.4,0,.8.2,1.2,0-.1.2-.3.2-.5,0-.2.2-.4.2-.6,0,0,0-.2,0-.3,0-.1,0-.2,0-.4s0-.3.1-.3v-.2c0-.1,0-.2,0-.3,0,0,0-.1,0-.3s0-.2.1-.2v-.3c0,0,0-.2,0-.4s0-.1.1-.2h0v-.2c0-.2,0-.3.1-.3,0,0,.1-.4.3-.9.1-.4.2-.7.3-1,0-.3.2-.5.2-.7.1-.4.2-.8.2-1.2-.3.2-.6.5-.8,1-.3.6-.5,1.2-.6,1.8-.2.6-.2.9-.2.9,0,0-.1.2-.1.3s0,.1-.1.1h0c0,.3,0,.4,0,.4,0,.2,0,.4-.1.4v.2c0,.1,0,.3-.1.3,0,.3,0,.5,0,.5v.2c0,0,0,.1,0,.2,0,.1,0,.3,0,.4,0,.1,0,.3,0,.3h0ZM341,312.3c.3-.5.3-.9,0-1.2-.4-.4-.5-.8-.5-1.4-.2-.3-.2-.6-.2-.8s0-.6-.2-.9c0-.4,0-.6,0-.7.1-.4,0-.7-.1-.9-.2-.2-.4-.4-.7-.7,0,.3,0,.6,0,.9,0,.3,0,.6.3.8,0,.4.1.7.2,1,0,.3.2.6.2.9,0,.1,0,.3,0,.4,0,.1,0,.2.2.3,0,.3,0,.5.2.7.1.2.2.4.3.6,0,.2.2.4.3.6.2.2.2.4.3.5h0ZM348.4,322.1c.4.4.6.5.7.5s.3-.1.5-.4c-.2,0-.4,0-.6,0-.2,0-.4,0-.6,0h0ZM405.8,261.1c.4-.7.9-1.1,1.5-1.1.7,0,1.4,0,2.2.2.9.1,1.8.2,2.7.4.9.1,1.8.3,2.7.5.2,0,.4,0,.7.2.3,0,.7.2,1,.4.6.3,1.1.7,1.5,1.1.4.4.5,1,.5,1.7s0,.8,0,1.2c0,.4,0,.8-.2,1.3,0,.3-.1.6,0,1,0,.3,0,.6,0,1,0,.4.1.7.2,1,0,.3,0,.5,0,.6,0,1.2-.1,2.4-.2,3.6,0,1.2-.1,2.4-.1,3.6s0,2.6.2,3.9c0,1.3,0,2.6,0,3.9s0,1.1,0,1.5c0,.5,0,1,0,1.5,0,1.3,0,2.6,0,3.9,0,1.3,0,2.6,0,3.9,0,1.6-.1,3.3-.2,4.9,0,1.6,0,3.2,0,4.9,0,2-.1,3.9-.1,5.9s.2,4,.4,6c0,.1,0,.2,0,.3,0,0,0,.2,0,.3-.1,1.3-.1,2.6,0,3.8,0,1.3,0,2.5,0,3.8s-.1,2.7-.3,4c-.2,1.1-.8,1.7-2,1.5-.8-.1-1.6-.2-2.5-.2-.8,0-1.7,0-2.6.1-.4,0-.8,0-1.1,0-.4,0-.7,0-1.1,0-.3,0-.6,0-.8,0-.2,0-.5-.1-.8-.2-.6-.2-1.1-.6-1.2-1.2-.1-.8-.2-1.5-.2-2.3,0-.7,0-1.5.1-2.2,0-.1,0-.5.1-1.1,0-.9.1-1.8.2-2.6,0-.9,0-1.8,0-2.7,0-1.2.1-2.4,0-3.5,0-1.2-.1-2.4-.2-3.6,0-.8,0-1.5-.1-2.4,0-.8,0-1.6.1-2.3,0-.3,0-.5,0-.8,0-.3,0-.5,0-.8,0-.8-.3-1.6-.8-2.3-.5-.7-1.4-1.2-2.5-1.3-1.6-.2-3.2-.2-4.7-.4-1.1,0-2.1-.2-3.1-.2-2.7-.2-4.1,1.1-4.3,3.7,0,.4-.2.7-.2,1.1,0,.4-.1.8-.1,1.1,0,1.5-.2,3.1-.2,4.6,0,.3,0,.5,0,.7,0,.2,0,.4,0,.6v5.1c0,1.7,0,3.4-.1,5.1,0,1.3,0,2.7,0,4s0,.1,0,.2c0,1-.3,1.6-.6,1.9-.3.2-1,.4-2,.4-.5,0-1,0-1.5,0-.5,0-1,0-1.6.2-.6.1-1.2.2-1.9.1-.6,0-1.3,0-1.9-.2-.9-.2-1.6-.8-2-1.8-.3-.6-.4-1.2-.4-1.8,0-.6-.1-1.2-.2-1.9-.2-2,0-3.9,0-5.8,0-2.2,0-4.5,0-6.7s0-1.7,0-2.6c0-.9,0-1.8,0-2.6-.1-1.5,0-3,0-4.5,0-1.5,0-3,.1-4.5,0-1.2.1-2.5.2-3.7,0-1.2,0-2.5-.2-3.7,0-.4,0-.7,0-1,0-.3.1-.6.1-1,0-1.5,0-3,0-4.5,0-1.5,0-3,0-4.5,0-1.2-.1-2.4-.2-3.5,0-1.1,0-2.3,0-3.5s0-.7,0-1c0-.3,0-.6,0-1,0-1.4,0-2.8,0-4.3s0-2.8,0-4.3c0-1.7,0-3.3-.3-5.1,0-.2,0-.5,0-.8,1.3-.7,2.4-.8,3.5-.4.6.2,1.2.3,1.7.4.6,0,1.1,0,1.7.1.6,0,1.1.1,1.7.2.5,0,1.1.2,1.7.4,1.9.7,2.8,2,2.5,3.7-.3,2.5-.6,4.9-.6,7.3,0,1.6-.1,3.1,0,4.6,0,1,.2,2,.2,3,0,1,0,2,0,3,0,1.3,0,2.6,0,3.9v3.7c0,.8.1,1.5.4,2.2.6,1.3,1.5,2,2.7,2.1,1,0,2,0,2.9.2.9,0,1.9.2,2.9.3.4,0,.9,0,1.3.1.4,0,.8,0,1.3,0,1.1,0,2.1-.3,3-1,.4-.3.6-.7.7-1.1.1-.4.2-.8.3-1.2.2-.8.3-1.5.4-2.3,0-.8.2-1.6.2-2.4,0-1.3,0-2.6,0-3.9,0-1.3,0-2.5,0-3.9,0-1.6,0-3.2-.1-4.8,0-1.6-.1-3.2-.2-4.8,0,0,0-.1,0-.2-.2-.8-.3-1.5-.4-2.3,0-.4-.1-.7,0-1.1,0-.3,0-.7,0-1h0ZM415.8,275.8c-.4-.2-.8-.2-1.1,0,0,.4-.1.8-.1,1.3s0,.9.2,1.4c.4,0,.6-.1.5-.1.1-.8.3-1.7.4-2.5h0ZM409.6,316.9c.4-.7.6-1.4.6-2.1v-1.9c0,0-.1,0-.1-.1s0-.1,0-.1c0,0,0,0,0-.2-.4,1.4-.6,2.8-.4,4.4h0ZM384.1,272.1c.4-1.2.5-2.6.1-4.1,0,.5-.1,1-.1,1.5v1.5c0,.1,0,.3,0,.5,0,.2,0,.4,0,.5h0ZM380.4,295.6c-.4.5-.6.9-.6,1s.2.5.6,1v-2h0ZM386.1,313.6s0,0,.1,0v-.8s0,0-.1,0v.8h0ZM415.8,274.6c0,0,.2,0,.2,0v-.7c0,0-.2,0-.2,0v.7h0ZM388.1,258.6c0,0,0-.1-.1-.2v.2s0,0,.1,0h0ZM447.7,324.5c1.7.2,3.4.4,5.1.6,1.7.2,3.4.4,5.1.6,0,0,.2,0,.2,0,.7.1,1.2.3,1.4.5.2.2.3.6.4,1.1,0,.3,0,.5,0,.5.4.9.6,1.7.5,2.4,0,.8,0,1.5-.2,2.3,0,.1-.1.3,0,.5,0,.2,0,.4,0,.5,0,.6-.4.9-1.1,1-.6,0-1,0-1.1,0-1,0-2.1,0-3-.2-1-.1-1.9-.2-3-.4-1.1-.1-2.3-.3-3.4-.4-1.2,0-2.3-.1-3.5-.2-1.1,0-2.3,0-3.5-.1-2.7-.1-5.4-.2-8.2-.1-.6,0-1.2,0-1.9,0-.6,0-1.2,0-1.8,0-.7,0-1.5-.2-2.5-.6-.5-.2-.6-.5-.5-.9.1-.4.2-.8.3-1.3,0-.3,0-.6,0-.8,0-.2,0-.5,0-.7.1-.7.2-1.3.1-1.8,0-.5-.1-1.1,0-1.8,0-.3.1-.7,0-1.1,0-.4,0-.8,0-1.1,0-.1,0-.3,0-.5,0-.2,0-.4,0-.5,0-1.6,0-3.2-.1-4.8-.2-1.6-.2-3.2-.1-4.7,0-1.6.1-3.2.1-4.7s0-3.1,0-4.6c0-1.1,0-2.3,0-3.4,0-1.1,0-2.3,0-3.4,0-1.7,0-3.4,0-5.1,0-1.7,0-3.4,0-5.1,0-1.7-.1-3.5-.4-5.4-.2-1.2-.1-2.4,0-3.6,0-1.2,0-2.3,0-3.5,0-2,0-4.1,0-6.1,0-.4,0-.6,0-.9,0-.2,0-.5,0-.8,0-.4,0-.6.1-.8.1-.2.3-.4.4-.6.5-.9,1.5-1.1,3.1-.5,2.2.8,4.3,1.6,6.4,2.3,2.1.7,4.3,1.3,6.4,2.1.9.3,1.8.7,2.7,1.1.9.4,1.8.8,2.7,1.1.4.2.9.2,1.3.4.4.1.8.3,1.2.4,1.3.5,2.5.9,3.8,1.4,1.2.5,2.5,1,3.7,1.7,1.1.5,1.8,1,2.1,1.2.3.3.4,1,.4,2.1,0,.3,0,.7,0,1,0,.4,0,.7-.2,1.1-.2.8-.4,1.8-.4,3.1s-.7,1.3-2.1.7c-1.2-.5-2.3-.9-3.5-1.4-1.5-.6-2.9-1.2-4.2-1.8-1.3-.6-2.5-1-3.6-1.3-1.1-.3-2.3-.7-3.5-1.1-1.2-.4-2.2-.3-2.9.4-.5.5-.8,1.1-1.2,1.6-.3.6-.5,1.2-.4,1.9,0,.4,0,.7-.1,1.1,0,.3-.1.7-.2,1-.1.5-.2,1-.2,1.6v3.3c0,.5,0,1,.1,1.5,0,.6.1,1.3.3,2,.4,1.4,1.3,2.3,2.8,2.8.9.3,1.8.7,2.7,1.1.9.4,1.9.6,2.9.8.6.1,1.4.3,2.1.6.6.2,1.1.3,1.6.4.5.1,1,.2,1.5.2s.5,0,1.1.2c1.2.4,2,1.1,2.3,2.2.2.5.2,1,.4,1.6.1.6.1,1.1,0,1.5,0,.5-.1.9-.1,1.2s0,.8,0,1.2c0,1.5-1.1,1.9-2.9,1.5-.2,0-.4,0-.6-.1-1.6-.6-3.2-1.1-4.9-1.4-1.6-.3-3.3-.8-5-1.2-2-.5-3.4.2-4.1,1.8-.1.3-.2.7-.3,1.1,0,.4-.1.7-.2,1.1-.1.8-.2,1.7-.2,2.5,0,1.3,0,2.5,0,3.8.1,1.2.1,2.5,0,3.7,0,.3,0,.6,0,.9,0,.3,0,.5,0,.9,0,1,.6,1.7,1.7,2.3.7.4,1.6.7,2.7.8,1.5.1,3.1.2,4.7.2v.3h0ZM443,326.8c-.6-.1-1.2-.2-1.7-.2-.6,0-1.1,0-1.7.2,1,.2,1.7.3,2,.3.4,0,.8,0,1.4-.3h0ZM439,325c.7.2,1.2.3,1.4.3.2,0,.5,0,.8-.1-.4-.2-.8-.3-1.2-.3-.3,0-.7,0-1.1,0h0ZM435,272.2c-.1.3-.2.5-.2.6s0,.4.2.8c.8-.4.8-.9,0-1.4h0ZM430.2,273c0,0-.2,0-.2-.2-.4.5-.3,1,.2,1.5v-1.4h0ZM450.5,278c-.4-.4-.7-.6-.9-.6-.1,0-.5,0-1,.1.6.2,1.3.3,1.9.5h0ZM452.9,278.6c.1,0,.3.1.4.2,0,0,0,0,.1,0-.3-.1-.5-.2-.6-.3v.2h0ZM442.5,325.6c0,0,.1-.2.2-.3h0c-.1,0-.2,0-.3,0,0,0-.1,0-.1,0,0,0,.2.1.2.2h0ZM439,301.9s0,0,.1.1c0,0,.2-.1.2-.2,0,0,0,0-.1-.1,0,0-.2,0-.2.1h0ZM435,329.5c0,0-.2,0-.2,0,0,0,0,0-.2,0,0,0,0,0,0,0,0,0,0,.1,0,.1,0,0,0,0,0,0,.2,0,.3,0,.4,0h0ZM432.5,328.2s0,0,.1.1h0c0-.1,0-.1-.1-.1h0ZM195.8,286.2v.8c0,.5,0,1.1,0,1.6,0,.6,0,1.1,0,1.6.2,1.1.7,2,1.7,2.6,1,.6,2.1.7,3.2.3,0,0,.3-.2.8-.2,1,0,1.9-.3,2.7-.9.7-.5,1.4-1.2,2-1.9,1.7-2,2.5-4.2,2.8-6.5.2-1.8-.2-3.3-1.1-4.5-.5-.5-.9-1.1-1.5-1.5-.6-.5-1.3-.7-2.1-.8-1.1,0-2.2-.3-3.3-.3-1,0-1.9.3-2.8.4-1,.2-1.5.7-1.7,1.6,0,.3-.1.5-.2.8,0,.2,0,.5-.1.9-.1,1-.2,2-.3,3,0,1,0,2-.2,3,0,0,0,0,.1,0h0ZM222.4,329.6c.4-1,.7-2.1.7-3.1,0-1,0-2.1-.2-3.1-.1-.2-.2-.5-.3-.7-.2-.3-.5-.3-.8-.3,0,.5,0,1.1,0,1.6,0,.5,0,1,0,1.6v2.7c0,.6.2,1,.6,1.3h0ZM186.4,322.6c.4-.4.7-.7.8-1,.1-.3.2-.6.2-1-.1-2-.3-3.9-.4-5.9,0-.3-.2-.4-.6-.3-.1.5-.2.8-.2.9,0,1.2,0,2.3,0,3.5,0,1.2,0,2.5.1,3.8h0ZM191.4,271.5c-.4.4-.7.7-.8.8,0,0,0,.3,0,.6,0,1.4.2,2.8.3,4.2.1.1.3.2.4.3.2-1.1.3-2.1.4-3,.2-1,0-1.9-.3-2.9h0ZM212.9,289.3c.4-.4.6-.6.8-.7.2-.1.3-.3.4-.6.3-1.1.6-2.3.9-3.4,0-.3,0-.4-.1-.5-.2-.2-.4-.4-.6-.5-.4.8-.7,1.8-.9,3-.3,1.2-.4,2.1-.4,2.8h0ZM176.1,349.1c-.4-.6-.6-.8-.6-.8-.8-.3-1.7-.4-2.8-.4.2.2.3.5.6.7.3.3.8.5,1.3.5.5,0,1.1,0,1.6,0h0ZM272.4,320.3c1.1,0,1.8.5,2,1.6,0,.2,0,.5,0,.7-.1,1-.2,1.9-.3,2.8,0,.9-.2,1.8-.2,2.8,0,1.1-.2,1.8-.7,2.1-.5.3-1.3.4-2.4.4-2.2,0-4.5,0-6.7,0-2.3,0-4.5,0-6.8.1-1.1,0-2.1,0-3.1,0-1,0-2,.1-3.1.1-1.2,0-2.3,0-3.4,0-1.8,0-3.6,0-5.5.1-1,0-2-.1-3-.2-.6,0-1-.4-1.3-.9,0,0,0-.2,0-.5-.2-1-.3-2.3,0-3.9.2-1.6.5-3,.8-4.1.5-.1,1.1-.3,1.7-.4,1.4-.1,2.8-.1,4.1-.2,1.3,0,2.7-.2,4.1-.2,1.3,0,2.5,0,3.8,0,1.3,0,2.5,0,3.8,0s1.2,0,1.7,0c.5,0,1.1,0,1.7,0,2.7-.1,5.4-.2,8.1-.2.8,0,1.7,0,2.5-.2.8,0,1.6-.2,2.4-.2h0ZM244.1,328.1s.2,0,.3-.2c-.1,0-.2-.2-.3-.3-.2.1-.2.2-.2.3s0,0-.1.2c0,0,.1,0,.2.1,0,0,.1,0,.2,0h0ZM251.7,327.4c-.4,0-.9,0-1.4,0-.5,0-1,0-1.4,0-.5,0-1,0-1.5,0-.4,0-.9,0-1.3.3,1.9,0,3.7-.1,5.6-.2v-.2h0ZM254.8,327.4c0,0-.1,0-.2,0,0,0,0,0-.2,0-.2,0-.3,0-.3.1,0,0,.2,0,.3.2,0,0,.2-.1.3-.2h0ZM260.1,323.3c0,0,0-.1.1-.2-.8-.1-1.8-.2-2.8-.1-1.1,0-2,.2-2.7.4,2.1.3,3.9.3,5.5,0h0ZM275.2,259.8c0,.9,0,1.6,0,2.3,0,.6.1,1.2,0,1.8,0,1.2-.2,2.9-.3,5-.1,2.1-.2,4.3-.3,6.5,0,2.2,0,4.3-.1,6.2,0,1.9,0,3.2,0,3.9,0,.4-.1.8-.2,1.2,0,.4,0,.8,0,1.2,0,.6-.2,1.1-.2,1.6,0,.5-.2,1-.2,1.6,0,.4,0,.7,0,1s0,.6-.1,1c0,.3,0,.6,0,.9-.2,1.4-.4,2.9-.6,4.4-.1,1.5-.5,3-1,4.5-.5,1.4-1.3,2.6-2.2,3.6-.9,1-1.9,1.9-2.8,2.6-1,.7-1.9,1.2-2.7,1.5-.8.4-1.4.5-1.7.6-.4.1-.9.3-1.4.3-.5,0-1,.2-1.5.2-.4,0-.8,0-1.3,0-.4,0-.9,0-1.3,0-.4,0-.8-.1-1.3-.1-.4,0-.8.1-1.3.2-1.2.3-2.5.2-3.6.1-1.1-.1-2.3-.3-3.5-.6-.2,0-.4-.1-.6-.1-.2,0-.4-.1-.6-.2-.8-.5-1.6-1-2.4-1.5-.8-.5-1.5-1.1-2.2-1.7-1.2-1.2-2-2.8-2.7-4.8-.6-1.7-1.1-3.5-1.7-5.2-.2-.8-.4-1.8-.4-2.9,0-1.4-.2-2.7-.3-4,0-1.3-.2-2.6-.3-3.9,0-.6,0-1-.1-1.2-.3-1.4-.2-3.1.1-4.9.3-1.8.5-3.5.6-5.1,0-1.3,0-2.6,0-3.9s0-.6,0-.9c0-.3,0-.6,0-1v-1.3c0-.6,0-1.1,0-1.6,0-.5,0-1,0-1.6,0-.3-.1-.6-.1-.9v-.9c0-.3,0-.7,0-1,0-.3.2-.7.4-1.1.3-.6.9-1.1,1.7-1.4,1-.3,1.7-.4,2.3-.5.6,0,1.2-.1,1.8-.2.6,0,1.2-.2,1.9-.3.2,0,.4,0,.6-.1.2,0,.4,0,.5,0,.6,0,1.1.1,1.5.3.4.2.7.5.8,1.1.2.8.4,1.5.4,2.3,0,2.2-.2,4.4-.2,6.5,0,2.2,0,4.3,0,6.4,0,3.6,0,7.1,0,10.7,0,1.7.2,3.3.3,5,.1,1.6.3,3.3.6,5,.1,1,.5,1.8,1.1,2.5.5.7,1.3,1.3,2.1,1.8,0,.1.4.3.8.4,1.7.4,3.3.3,4.8-.3,1.5-.6,2.6-1.8,3.3-3.7.3-.8.5-1.6.6-2.4.1-.8.2-1.6.3-2.5,0-.7,0-1.4,0-2,0-.6,0-1.3,0-2,.1-.7.2-1.4.2-2.2v-2.1c0-.9,0-2.3.2-4.1.1-1.8.3-3.5.4-5.3,0-1.3.3-2.6.3-3.9,0-1.6,0-3.1,0-4.6s0-3.1.1-4.7c0-.6,0-1.1,0-1.7,0-.6,0-1.2.2-1.8.6-.2,1.4-.5,2.1-.6,1-.2,2.1-.2,3-.2,1,0,2-.2,3.1-.4.5,0,1,0,1.5,0,.5,0,.9.3,1.3.6.2.4.2.9.1,1.3,0,.5-.1.9-.1,1.4h0ZM244.6,300.8c.1-1.2.2-2.4.2-3.7,0-1.3-.1-2.5-.3-3.8,0,.2,0,.4,0,.6,0,.2,0,.4-.2.6-.3,1-.4,2-.4,3,0,1,0,1.9,0,2.9s0,.3.2.4c.1,0,.3,0,.5,0h0ZM244.5,272.4c.3-.6.4-1.1.4-1.6,0-.5-.2-1-.3-1.7-.2.3-.2.5-.2.5,0,0,0,0-.1.1-.1.8-.2,1.6-.3,2.3,0,.8-.2,1.5-.2,2.3,0,.3.2.4.5.3v-1.2c0-.4.2-.7.2-1.1h0ZM271.8,268.3c.5-2.5.5-4.7-.1-6.6,0,.2-.1.3-.1.5s0,.1-.1.1c0,.8,0,1.6,0,2.4v2.4c0,.5.1.9.4,1h0ZM283.2,257.2c1.6-.7,2.9-1,3.8-1,.7,0,1.3,0,2,0,.6,0,1.3,0,2,0,.4,0,.7,0,1,0,.2,0,.6,0,.9,0,1.3-.2,2.6-.4,3.9-.4,1.3,0,2.7,0,4,0,1.2,0,2.4,0,3.6,0,1.2,0,2.4,0,3.6,0,1.6,0,3.1-.1,4.7-.2,1.6,0,3.1-.2,4.6-.3.9,0,1.8-.2,2.6-.2.8,0,1.7-.1,2.5-.3.3.2.7.4,1,.6.3.3.5.6.6,1.1,0,.5.1,1,.2,1.5,0,.5,0,.9,0,1.4,0,.4,0,.8,0,1.1-.2.8-.3,1.6-.4,2.5,0,.8-.2,1.7-.3,2.6-.6.6-1.3.9-2.2,1-1,.1-1.9.3-2.8.5-.9.2-1.9.1-2.9,0-1,0-2.1,0-3.4.4-1.5.4-2.3,1.3-2.5,2.8,0,.6-.2,1.1-.2,1.6,0,.5,0,1.1,0,1.7,0,3.5-.2,7.1-.2,10.6,0,1,0,2.1,0,3.2,0,1.1,0,2.1,0,3.2s0,2.1,0,3.1c0,1,0,2.1,0,3.1,0,1.5-.1,2.9-.1,4.4v5.9c0,.5,0,1-.1,1.5-.2,1.3-.1,2.5.1,3.4.1.4.2.8.1,1.2,0,.4,0,.9-.1,1.3-.1,2.9-.3,5.7-.4,8.6v3.6c0,.4,0,.8,0,1.1,0,.4,0,.8,0,1.2-.1.7-.5,1-1.3,1.1-1.1,0-2.1.3-3,.4-1,0-1.9,0-3,.1-.7,0-1.5,0-2.1-.2-.7-.2-1.3-.4-2-.5-.4-1.2-.6-2.2-.6-2.8,0-1.4,0-2.7,0-4,0-1.3,0-2.6,0-3.9v-3.5c0-.6,0-1.3,0-2,0-.7,0-1.4,0-2.1,0-1.2.1-2.4.2-3.6,0-1.2.1-2.4.1-3.6,0-4.1-.2-8.3,0-12.4,0-1.1.4-2.1.4-3.1,0-1,0-2,0-3.1.1-1.9.2-3.8.2-5.7s0-3.8,0-5.7c0-.7-.2-1.3-.4-1.8-.2-.5-.4-1.1-.7-1.7,0-.1-.2-.3-.4-.5-.2-.2-.3-.4-.5-.5-.7-.3-1.4-.7-2.1-1-.8-.3-1.5-.3-2.3-.3-1.7.1-3.4.3-5.1.3-1.5,0-2.2-.8-2.2-2.1,0-1-.2-2-.3-3.1-.1-1-.1-2.1,0-3.2,0-.4,0-.9,0-1.4,0-.5,0-1,0-1.6h0ZM300.8,290.4c.2-.7.3-1.5.3-2.2,0-.7.1-1.4.1-2.1v-2.1c0-.2,0-.6-.2-1.3-.1-.1-.2-.2-.3-.3-.4,1.2-.5,2.6-.5,4.3s.2,3,.6,3.8h0ZM304.6,259.5c-.7-.1-1-.2-1-.2-2.3.2-4.7.3-7,.5-.2,0-.6.1-1.2.3,0,0-.3.2-.6.4.4,0,1,0,1.9,0,.9,0,1.9-.2,2.9-.2,1.1,0,2-.2,2.9-.3.9-.1,1.6-.3,1.9-.4h0ZM306.2,289.2c-.4,1-.6,2-.6,2.8s.1,1.7.3,2.6c.3-.8.4-1.6.4-2.5v-2.5c0,0,0-.1,0-.2,0,0-.1-.1-.1-.2h0Z"/>
  <path class="st0" d="M57.8,115.1c6.6,0,11.9,5.3,11.9,11.9s-5.3,11.9-11.9,11.9-11.9-5.3-11.9-11.9,5.3-11.9,11.9-11.9h0Z"/>
  <path class="st0" d="M111.6,331.7c6.6,0,11.9-5.3,11.9-11.9s-5.3-11.9-11.9-11.9-11.9,5.3-11.9,11.9,5.3,11.9,11.9,11.9h0Z"/>
  <path class="st0" d="M672.3,115.1c-6.6,0-11.9,5.3-11.9,11.9s5.3,11.9,11.9,11.9,11.9-5.3,11.9-11.9-5.3-11.9-11.9-11.9h0Z"/>
  <path class="st0" d="M618.5,331.7c-6.6,0-11.9-5.3-11.9-11.9s5.3-11.9,11.9-11.9,11.9,5.3,11.9,11.9-5.3,11.9-11.9,11.9h0Z"/>
  <path class="st4" d="M431.7,83.5c-1.7,0-3-1.5-2.9-3.2,0-1.7,1.5-3,3.2-2.9,14,.6,27.3,1.4,39.8,2.3,12.7,1,24.9,2.1,36.2,3.4,1.7.2,2.9,1.7,2.7,3.4-.2,1.7-1.7,2.9-3.4,2.7-11.1-1.3-23.2-2.4-36-3.4-12.7-1-26-1.7-39.6-2.3h0ZM222.7,89.2c-1.7.2-3.2-1-3.4-2.7-.2-1.7,1-3.2,2.7-3.4,11.3-1.3,23.5-2.4,36.2-3.4,12.5-.9,25.8-1.7,39.8-2.3,1.7,0,3.1,1.2,3.2,2.9,0,1.7-1.2,3.1-2.9,3.2-13.7.6-26.9,1.4-39.6,2.3-12.8,1-24.8,2.1-36,3.4h0ZM317.6,51.7c1.2-.4,2.1-.6,2.7-.6.5,0,1,0,1.4.1.5,0,1,0,1.4,0,.3,0,.5,0,.7,0h.7c.9-.2,1.8-.2,2.8-.2,1,0,1.9,0,2.9,0s1.7,0,2.6,0c.9,0,1.7,0,2.6,0s2.2,0,3.4,0c1.1,0,2.2-.1,3.3-.2.6,0,1.3,0,1.9-.1.6,0,1.2,0,1.8-.2l.7.5c.2.2.3.5.4.8,0,.4,0,.7.1,1.1,0,.3,0,.7,0,1,0,.3,0,.6,0,.8-.1.6-.2,1.2-.2,1.8,0,.6-.1,1.2-.2,1.9-.4.4-1,.7-1.6.7-.7.1-1.4.2-2,.3-.7.1-1.4.1-2.1,0-.7,0-1.6,0-2.4.2-1.1.3-1.7.9-1.8,2,0,.4-.1.8-.2,1.2,0,.4,0,.8,0,1.2l-.2,7.8c0,.7,0,1.5,0,2.3,0,.8,0,1.6,0,2.3s0,1.5,0,2.2c0,.7,0,1.5,0,2.2,0,1.1,0,2.2,0,3.3v4.3c0,.3,0,.7,0,1.1-.1,1,0,1.8,0,2.5.1.3.1.6,0,.9,0,.3,0,.6,0,1l-.3,6.3v2.6c0,.3,0,.5,0,.8,0,.3,0,.6,0,.8,0,.5-.4.8-1,.8-.7.1-1.5.2-2.2.2-.7,0-1.4,0-2.2,0-.5,0-1,0-1.5-.2-.5-.2-1-.3-1.4-.4-.3-.9-.4-1.6-.4-2.1,0-1,0-2,0-3,0-1,0-1.9,0-2.9v-2.6c0-.5,0-1,0-1.5,0-.5,0-1,0-1.6,0-.9.1-1.8.2-2.6,0-.9,0-1.7,0-2.6v-9.2c.2-.7.3-1.5.3-2.2,0-.7,0-1.5,0-2.2.1-1.4.2-2.8.2-4.2v-4.2c0-.5-.1-.9-.3-1.3-.1-.4-.3-.8-.5-1.2,0-.1-.1-.2-.3-.4-.1-.2-.3-.3-.4-.4-.5-.3-1-.5-1.5-.8-.5-.2-1.1-.3-1.7-.3h-3.7c-1.1-.1-1.6-.6-1.6-1.6,0-.7-.1-1.5-.2-2.3-.1-.8-.1-1.6,0-2.4,0-.3,0-.7,0-1,0-.3,0-.7,0-1.2h0ZM372.5,52c.3-.6.6-.9,1.1-1,.5-.1,1-.2,1.6-.2.6,0,1.3,0,2-.1.7,0,1.3,0,2,0s.3,0,.5,0c.2,0,.5,0,.7.1.4.2.8.4,1,.6.3.3.4.7.4,1.2s0,.6,0,1c0,.3,0,.7-.1,1,0,.3,0,.5,0,.8,0,.2,0,.5,0,.8,0,.3,0,.5.1.7,0,.2,0,.4,0,.5,0,1-.1,1.9-.2,2.8,0,.9,0,1.9,0,2.9s0,2,0,3.1c0,1,0,2,0,3.1s0,.8,0,1.2c0,.4,0,.8,0,1.2,0,1,0,2,0,3.1,0,1,0,2,0,3.1,0,1.3-.1,2.6-.2,3.9,0,1.3,0,2.6,0,3.9,0,1.6,0,3.1,0,4.7s.1,3.1.3,4.7c0,.1,0,.2,0,.2,0,0,0,.1,0,.2-.1,1-.1,2,0,3,0,1,0,2,0,3s0,2.1-.2,3.1c-.1.9-.6,1.3-1.4,1.3-.6-.1-1.2-.1-1.8,0-.6,0-1.2.1-1.9.2-.3,0-.5,0-.8,0h-.8c-.2,0-.4,0-.6,0-.2,0-.3,0-.6-.1-.5-.1-.8-.4-.9-.9,0-.6-.1-1.2-.2-1.7,0-.6,0-1.1,0-1.7,0-.1,0-.4,0-.8,0-.7,0-1.4.1-2,0-.7,0-1.4,0-2,0-.9,0-1.8,0-2.7,0-.9,0-1.8-.1-2.7,0-.6,0-1.2,0-1.8,0-.6,0-1.2,0-1.8,0-.2,0-.4,0-.6,0-.2,0-.4,0-.6,0-.6-.2-1.2-.6-1.7-.4-.5-1-.8-1.8-.8h-5.6c-2,0-3,1-3.1,3.1,0,.3-.1.5-.2.8,0,.3,0,.6,0,.8l-.2,3.5c0,.2,0,.4,0,.6,0,.2,0,.3,0,.5v3.9c0,1.3,0,2.6,0,3.9v3.1c0,.7-.2,1.2-.4,1.4-.2.2-.7.3-1.4.4-.4,0-.7,0-1.1,0s-.7,0-1.2.2c-.4.1-.9.1-1.4.1-.5,0-.9,0-1.4-.1-.6-.2-1.1-.6-1.4-1.3-.2-.4-.3-.9-.3-1.3,0-.5,0-.9-.1-1.4-.1-1.4-.1-2.9,0-4.3v-5c0-.6,0-1.3,0-2,0-.7,0-1.3,0-2,0-1.1,0-2.2,0-3.3,0-1.1,0-2.2.1-3.3,0-.9,0-1.8.1-2.7,0-.9,0-1.8-.1-2.7,0-.3,0-.5,0-.7,0-.2,0-.5,0-.7,0-1.1,0-2.2,0-3.4,0-1.1,0-2.2,0-3.4,0-.9,0-1.8-.1-2.6,0-.8,0-1.7,0-2.6s0-.5,0-.7c0-.2,0-.5,0-.7,0-1.1,0-2.1,0-3.2v-3.2c0-1.2,0-2.5-.2-3.8v-.6c.9-.6,1.7-.8,2.5-.6.4.1.8.2,1.2.2.4,0,.8,0,1.2,0,.4,0,.8,0,1.2,0,.4,0,.8,0,1.2.2,1.3.4,2,1.3,1.8,2.6-.3,1.9-.4,3.7-.5,5.6,0,1.2,0,2.3,0,3.5.1.7.1,1.5.1,2.2,0,.8,0,1.5,0,2.3,0,1,0,1.9,0,2.9v2.8c0,.6.1,1.1.3,1.6.4,1,1.1,1.4,2,1.4.7,0,1.5,0,2.1,0h3.1c.3,0,.6,0,.9,0,.8,0,1.5-.4,2.2-1,.3-.3.4-.6.5-.9,0-.3.1-.7.2-1,.1-.6.2-1.2.3-1.8,0-.6.1-1.2.1-1.9,0-1,0-2,0-3,0-1,0-2,0-3,0-1.2,0-2.5,0-3.7,0-1.2-.1-2.4-.2-3.7v-.2l-.3-1.7c0-.3,0-.5,0-.8,0-.3,0-.5,0-.8h0ZM402.6,97.4c1.2,0,2.5-.1,3.7-.2,1.2,0,2.5-.1,3.7-.2h.2c.5,0,.9,0,1,.2.1.1.2.5.3,1,0,.3,0,.4,0,.5.3.7.4,1.5.4,2.1,0,.7,0,1.4-.1,2.2,0,.1,0,.3,0,.5,0,.2,0,.3,0,.5,0,.5-.3.9-.8,1-.4.1-.7.2-.8.2-.7.1-1.5.2-2.2.2h-4.6c-.9,0-1.7,0-2.5.1-.8,0-1.7,0-2.5.2-1.9,0-3.9.2-5.9.5-.4,0-.9.1-1.3.2-.5,0-.9,0-1.3,0s-1.1-.1-1.8-.4c-.3-.2-.4-.4-.4-.7,0-.3.1-.7.2-1.1,0-.3,0-.5,0-.7,0-.2,0-.4,0-.6.1-.6.1-1.1,0-1.5,0-.4,0-.9,0-1.4,0-.3,0-.6,0-.9,0-.3,0-.7,0-.9,0-.1,0-.2,0-.4,0-.2,0-.3,0-.4,0-1.3,0-2.6,0-3.8-.1-1.3-.1-2.5,0-3.8,0-1.3,0-2.6,0-3.8v-3.7c0-.9,0-1.8,0-2.7,0-.9,0-1.8,0-2.7,0-1.4,0-2.8,0-4.1,0-1.3,0-2.7,0-4.1,0-1.4,0-2.8-.2-4.3,0-1,0-1.9,0-2.9,0-.9,0-1.9,0-2.9v-4.9c0-.3,0-.5,0-.7,0-.2,0-.4,0-.7,0-.3,0-.5,0-.6.1-.2.2-.3.3-.6.4-.8,1.1-1.2,2.2-1,1.6.2,3.1.3,4.6.3,1.5,0,3.1,0,4.6,0,.6,0,1.3,0,1.9,0,.6,0,1.3,0,1.9,0,.3,0,.6,0,1-.1.3,0,.6,0,.9,0,.9,0,1.8-.1,2.7-.2.9,0,1.8,0,2.7,0,.8,0,1.3.1,1.5.3.2.1.3.7.2,1.8,0,.3,0,.7,0,1,0,.3,0,.7-.1,1.1-.2.8-.3,1.8-.3,3.1s-.5,1.4-1.5,1.4c-.9,0-1.7,0-2.5,0-1.1,0-2.1,0-3.1-.2-.9-.1-1.8-.1-2.6,0-.8,0-1.7.1-2.5.1s-1.6.3-2.1,1c-.3.5-.6,1.1-.8,1.6-.2.5-.3,1.1-.3,1.7,0,.3,0,.6,0,.9,0,.3-.1.6-.2.8-.1.4-.2.9-.2,1.4v2.7c0,.4,0,.8,0,1.2,0,.5,0,1.1.2,1.6.3,1.1.9,1.7,2,1.8.6.1,1.3.2,2,.3.7.1,1.4.1,2.1,0,.5,0,1,0,1.5,0h1.2c.3,0,.7,0,1.1-.2.1,0,.4,0,.8,0,.9,0,1.4.5,1.7,1.3.1.4.2.9.3,1.4,0,.5,0,.9,0,1.4,0,.4,0,.8,0,1.2v1.1c0,1.3-.7,2-2.1,2h-.4c-1.2-.2-2.4-.3-3.5-.2-1.2,0-2.4,0-3.6,0-1.5,0-2.5.7-3,2.2-.1.3-.2.6-.2,1,0,.3,0,.6-.1,1l-.2,2.1c0,1.1,0,2.1,0,3.1,0,1,0,2,0,3.1,0,.3,0,.5,0,.7s0,.5,0,.7c0,.8.4,1.4,1.2,1.8.5.3,1.2.4,1.9.4l3.4-.4v.2h0Z"/>
  <path class="st4" d="M222.7,89.2c-1.7.2-3.2-1-3.4-2.7-.2-1.7,1-3.2,2.7-3.4,11.3-1.3,23.5-2.4,36.2-3.4,12.5-.9,25.8-1.7,39.8-2.3,1.7,0,3.1,1.2,3.2,2.9,0,1.7-1.2,3.1-2.9,3.2-13.7.6-26.9,1.4-39.6,2.3-12.8,1-24.8,2.1-36,3.4h0ZM574.1,249.5c-.5.5-1,.7-1.5.8-.5,0-.9,0-1.5,0-.9-.2-1.8-.4-2.7-.5-.8,0-1.7-.3-2.5-.6-.8-.3-1.7-.5-2.5-.5-.8,0-1.7-.1-2.5-.4-.4-.5-.6-1-.8-1.6-.1-.6-.2-1.2-.3-1.7-.4-1.7-.7-3.3-1-5-.3-1.6-.7-3.3-1.1-4.8-.4-1.1-.7-2.2-1-3.3-.3-1.1-.6-2.2-1-3.3-.3-.8-.6-1.5-.7-2.1-.2-.6-.3-1.3-.5-2.1-.8-2.6-1.7-5.2-2.5-7.8-.8-2.6-1.6-5.3-2.5-8-.3-.9-.5-1.8-.7-2.7-.2-.9-.5-1.7-1-2.5,0,0,0-.2,0-.2,0,0,0-.1,0-.2-.2-1.8-.6-3.5-1.4-5.2-.8-1.7-1.4-3.4-2-5.2-.1-.4-.3-.7-.5-1-.2-.3-.5-.6-.9-.8-1-.8-1.9-.6-2.5.6-.1.2-.2.4-.4.7-.1.3-.3.6-.4.9-.3,1.5-.6,3-.9,4.5-.3,1.6-.5,3.1-.8,4.7,0,1-.2,2-.4,2.9-.2,1-.4,2-.5,2.9l-2.2,10.9v.7c-.1,1.2-.2,2.5-.5,3.7-.2,1.3-.4,2.5-.5,3.9-.1.7-.2,1.4-.4,2.1-.2.7-.3,1.4-.5,2.1-.3,1.1-.5,2.2-.7,3.3-.2,1.1-.5,2.2-.8,3.3-.1.7-.2,1.3-.4,1.9-.2.6-.3,1.2-.4,1.8-.3,1.7-.8,3.5-1.3,5.2-.5,1.7-1.2,3.5-2.1,5.2-.3.5-.5,1-.8,1.6-.3.5-.5,1.1-.8,1.7-.6,1.3-1.2,2.6-2,3.8-.8,1.2-1.5,2.4-2.2,3.6-.1.2-.2.3-.2.3,0,0-.1.1-.2.3l-4,4.1c-2,2-4.4,3.7-7.2,5.1-1.9,1-3.6,1.7-5,2.2-.8.2-1.6.4-2.3.4-1.7.2-3.4.3-5,.4-1.6.1-3.3,0-5-.4-2-.5-3.9-1.1-5.7-1.8-1.8-.7-3.6-1.7-5.2-2.9-3.3-2.5-6.3-5.4-9.2-9-.6-.8-1.2-1.6-1.8-2.5-.6-.9-1.2-1.8-1.8-2.7-.4-.7-.8-1.4-1.1-2.2-.3-.8-.3-1.6,0-2.5l1.6-.7c1-.3,1.9-.7,2.8-1.1.8-.5,1.6-1,2.4-1.6.8-.6,1.6-1,2.4-1.3.8-.3,1.6-.6,2.5-.9.6.2,1.2.8,1.7,2,1.2,2.4,2.8,4.7,4.7,6.8.9,1,1.9,2,3,2.8,1.1.8,2.3,1.5,3.6,2,1.4.5,2.6.7,3.6.8,1.6.1,3,0,4.4-.5,1.4-.5,2.7-1.2,3.9-2.2,1-.7,1.9-1.4,2.6-2.3.8-.9,1.5-1.7,2.3-2.6.2-.4.5-.7.8-1,.3-.3.5-.6.7-.9.4-.5.8-1,1.1-1.7.9-2.2,1.7-4.3,2.6-6.5.9-2.1,1.7-4.3,2.4-6.5.5-1.6,1-3.2,1.4-4.7.4-1.5.9-3.1,1.4-4.7v-.8c.8-1.8,1.4-3.5,1.7-5.4.4-1.8.8-3.6,1.2-5.4.3-1.1.4-2.2.5-3.3,0-1.1.2-2.2.5-3.3,0-.4.1-.8.2-1.1,0-.3.1-.7.3-1.1,0-.4.1-.9.2-1.4,0-.5.2-.9.3-1.4.4-1.2.6-2.3.7-3.4.1-1.1.3-2.2.5-3.5.6-2.8,1.1-5.5,1.6-8.4.5-2.8.9-5.6,1.2-8.4.1-.9.3-1.7.4-2.5.1-.8.2-1.7.3-2.6,0-.8.1-1.6.3-2.3.2-.7.3-1.5.4-2.3.2-1.5.4-2.9.6-4.2.2-1.4.4-2.8.6-4.3,0-.4.1-.8.2-1.2,0-.3,0-.7,0-1.2.1-.7.2-1.4.2-2,0-.7,0-1.3.1-2.1,0-.9.4-1.6,1-2.2.6-.6,1.4-.9,2.4-.7,1,.2,2.1.4,3.1.6,1,.2,2.1.5,3.1.7.4,0,.9.2,1.4.3.5.2.9.2,1.4.2,1.3.2,2.2,1,2.7,2.3l2.3,6.1c.4,1,.7,2,1.1,3,.3,1,.7,2,.9,3,.5,1.3,1,2.6,1.3,3.9.4,1.3.8,2.6,1.3,3.9.2.6.4,1.1.6,1.7.2.6.5,1.1.7,1.7l4,11.3c1,3.9,2.3,7.5,3.7,10.7.5,1.2,1.2,2.1,2,2.7.6.4,1.1.4,1.5.2.4-.2.7-.6.8-1.2.4-1.8.9-3.6,1.2-5.4.4-1.8.8-3.6,1.2-5.4l.3-1.8c0-.5.1-1,.2-1.5,0-.5.2-.9.4-1.3.5-1.5.9-3.1,1.1-4.6.2-1.6.5-3.2.9-4.8.2-1.3.4-2.6.5-3.9.2-1.3.3-2.7.5-4.1l1.1-7.6c0-.2,0-.4.2-.6,0-.2.1-.4.2-.7.2-.9.8-1.3,1.8-1.5,1.2,0,1.9,0,2.4.2,1,.3,2,.5,3.1.5,1,0,2.1.1,3.1.3l2.3.4c.9.2,1.2.8,1.1,1.6,0,.6,0,1.2,0,1.9,0,.6-.1,1.2-.2,1.8-.2,1.6-.5,3.1-.8,4.6-.3,1.5-.6,3-.8,4.6l-1.6,10.6c-.2,1.2-.4,2.4-.6,3.6-.2,1.2-.4,2.4-.5,3.7,0,1-.1,1.9-.3,2.7-.1.8-.3,1.7-.4,2.5-.4,2.2-.8,4.4-1.1,6.6-.3,2.1-.7,4.3-1.3,6.5-.2.9-.4,1.9-.6,3-.2,1-.3,2-.5,3-.2,1.1-.3,2.2-.5,3.3-.2,1-.4,2.1-.8,3.2-.1.2-.3.9-.4,1.9l-1.2,7.7c0,.4-.2.9-.3,1.4-.1.5-.2,1-.3,1.4-.3,1.8-.6,3.7-.8,5.5-.3,1.8-.6,3.6-1.1,5.4,0,.2,0,.4-.2.6,0,.2-.1.4-.2.6h0ZM243.8,242c-.9.8-1.8,1.3-2.6,1.3-1.2.2-2.5.4-3.7.5-1.3.1-2.5.3-3.7.4-.7,0-1.2,0-1.5,0-.6,0-1.1-.3-1.4-.9-.3-.3-.6-.8-.8-1.4-.6-1.4-1.3-2.8-2.2-4-.9-1.2-1.8-2.5-2.7-3.7-.2-.2-.3-.3-.3-.5-.9-1.4-1.7-2.9-2.5-4.4-.8-1.5-1.7-3-2.5-4.4-.7-1.2-1.3-2.3-2-3.3-.7-1-1.4-2.1-2.1-3.3-.3-.6-.7-1.1-1-1.7-.3-.5-.7-1.1-1-1.8-.3-.7-.8-1.2-1.4-1.4-.6-.3-1.3-.5-2-.6-.3-.1-.6,0-.9.4-.7.5-1,1.2-1,2.1,0,1.9,0,3.7,0,5.6,0,1.9.1,3.8.4,5.6.3,1.7.5,3.4.6,5.1.1,1.7.4,3.4.8,5.1.3,1.5.6,2.9.7,4.3.1,1.4.1,2.9,0,4.4,0,.8-.4,1.3-1,1.4-.3.1-.5.2-.7.3-.2,0-.5.1-.7.1l-7.2.8c-1.1,0-2.2-.4-3.1-1.3-.4-.8-.7-1.7-.8-2.7-.1-1-.2-1.9-.2-2.9-.1-1-.2-1.9-.2-2.7,0-.8,0-1.7,0-2.7l-.5-4.3c0-1.7-.2-3.3-.3-4.9-.1-1.6-.3-3.3-.5-4.9,0-.4,0-.9,0-1.4,0-.5-.1-.9-.1-1.4-.4-1.6-.6-3.3-.7-4.9-.1-1.6-.2-3.3-.2-5,0-1.3-.2-2.6-.3-3.9-.1-1.3-.3-2.6-.4-3.9-.3-2.4-.5-4.7-.7-7-.2-2.3-.6-4.6-.9-6.9-.4-2.5-.3-2.1-.4-4.5-.1-2.4,0-4.9-.3-7.5v-1c-.3-1.5-.7-2.9-.7-4.2,0-1.4-.1-2.8-.5-4.3-.1-.6-.2-1.2-.3-1.8,0-.6,0-1.2,0-1.9,0-.8.5-1.4,1.4-1.6.2,0,.4,0,.6-.1.3,0,.5,0,.7,0,1.5,0,2.9-.1,4.3-.4,1.3-.3,2.7-.6,4.2-.9,1.2-.3,2.4-.4,3.5-.6,4.4-.7,5,0,9.1.3,1.8.2,3.6.4,5.5.7,3.2.6,5.8,2.1,7.9,4.7,1.3,1.6,2.3,3.3,2.8,5.3.2.9.4,1.8.7,2.6.3.8.5,1.7.8,2.6.3,1,.5,2.1.7,3.1.2,1,.2,2.1.3,3.2l.3,2.9c.4,3.3.2,6.5-.5,9.6-.4,1.9-1.4,3.8-3,5.8-1,1.3-1.9,2.5-2.6,3.7-1.1,1.9-1.5,3.7-1,5.5.2.6.3,1.2.3,1.8,0,.6.2,1.2.5,1.7.2.4.5.9.8,1.4.3.5.7,1.1,1.2,1.7.8,1.1,1.6,2.2,2.2,3.3.7,1.2,1.3,2.3,2,3.5l5.5,9.2,1.9,3.1c.5.9,1.1,1.8,1.5,2.6.5.8,1,1.7,1.5,2.5.2.5.4.8.4,1,0,.2.1.6.2,1.4h0ZM205.1,187.7c0,.7.3,1.4.4,2.2,0,.8.3,1.6.5,2.5.3,1.5,1.1,2.4,2.2,2.9,1.1.5,2.4.4,3.8-.2,1.6-.8,2.9-2,3.9-3.5.6-.9,1.2-1.8,1.6-2.7.5-.9.8-1.9.8-3,0-1.5.3-.1.4-1.6,0-1.5-.3-2.9-1.1-4.3,0-.2-.1-.5-.2-1-.3-1.5-1.1-2.7-2.4-3.6-1-.7-2-1.2-3-1.7-1.1-.4-2.2-.6-3.4-.6-1.9,0-3,.9-3.3,2.6-.1.7-.2,1.4-.2,2,0,.6,0,1.3,0,2,0,1.8,0,3.5.2,5.2.1,1.7-.2.7,0,2.6h0ZM311,232.8c.5,1.5,0,2.3-1.4,2.5-.6.1-1.2.2-1.7.1-1,0-1.9,0-2.8,0-.9,0-1.9.2-2.8.4-.6.1-1.2.2-1.8.2-.6,0-1.1,0-1.7,0-2.3-.1-3.8-1.2-4.5-3.4-.2-.7-.4-1.3-.4-1.7,0-.4-.2-1-.4-1.7,0-.4,0-.6-.2-.6-.5-1.6-1-2.9-1.5-3.7-.5-.8-1.5-1.7-2.9-2.8-1.3-.8-2.6-1.2-4.1-1.3-2.1,0-4.2.2-6.3.4-2.1.2-4.1.6-6.1,1.1-2.2.7-3.4,2-3.8,4.1-.3,1.2-.5,2.3-.8,3.4-.2,1.1-.4,2.2-.6,3.3-.1.7-.3,1.4-.6,2.1-.3.7-.5,1.3-.9,2-.4.7-1,1.1-1.8,1.2-1.7.3-3.3.5-4.9.6-1.6.1-3.2.2-4.8.2-.7,0-1.2-.1-1.4-.2-.2-.1-.8-.4-1.6-.9-.2-1.4-.1-2.5.2-3.4.5-1.4.9-2.7,1.2-4.1.3-1.3.6-2.7,1-4l2.8-11.2c.2-1,.4-1.9.5-2.8.1-.9.2-1.8.3-2.8,0-.3,0-.6,0-.9,0-.3,0-.6.2-1,.5-1.8.8-3.6,1-5.3.2-1.7.4-3.5.8-5.3.1-.7.2-1.4.3-2,0-.6.2-1.2.3-1.9l2.3-13.2h0c0-1.6.3-3,.8-4.4.4-1.3.8-2.6,1.2-4,.4-1.8.8-3.6,1.2-5.4.4-1.8.8-3.6,1.1-5.4.5-2.3.8-4.6,1.1-6.7.1-.7.2-1.5.3-2.3,0-.8.2-1.6.3-2.4,0-.3.1-.6.1-.9,0-.3.1-.6.3-.7,0-.4.4-.6.9-.9.2-.2.4-.3.6-.3.3,0,.5,0,.6-.2,1.5-.3,2.9-.5,4.3-.8,1.4-.2,2.8-.3,4.3-.2.7,0,1.3.2,1.8.4.5.2,1,.5,1.6.8.2.2.3.3.4.4,0,.1.1.3.2.4l1.3,3.9c.7,2.2,1.4,4.3,2,6.4.7,2.1,1.3,4.3,1.9,6.4l.5,2.1c.1.7.3,1.3.5,1.9.2.6.4,1.2.7,1.8.8,1.8,1.5,3.6,1.9,5.3.7,2.1,1.3,4.2,1.9,6.3.6,2.1,1.2,4.2,1.9,6.3.6,1.7,1.1,3.5,1.5,5.2.5,1.7.9,3.5,1.3,5.2.2.7.4,1.3.5,1.9.1.6.3,1.2.5,1.8.6,1.7,1,3.4,1.3,5.1.3,1.7.8,3.3,1.3,4.9.9,2.9,1.7,5.5,2.5,7.8.8,2.3,1.8,4.8,3,7.5l2,3.8.7,1.3h0ZM283.4,207.2c.7-.6,1.2-1.2,1.7-1.9.4-.7.5-1.5.2-2.5v-.7c-.2-.9-.3-1.7-.5-2.5-.1-.8-.3-1.6-.6-2.5-.7-2.5-1.4-5-2.2-7.4-.8-2.4-1.6-4.9-2.4-7.4-.2-.5-.5-1-.9-1.5-.5-.5-1-.7-1.4-.6-.5,0-.8.5-1,1.2l-1.5,4.9-.8,3.4c-.1.5-.2.9-.2,1.2,0,.4-.1.7-.3,1.1-.2,1.1-.4,2.1-.6,3.1-.2,1-.3,2.1-.4,3.1-.2,1.1-.4,2.1-.6,3.2-.2,1.1-.4,2.2-.4,3.3,0,1.6.7,2.6,2.2,3,.8.3,1.6.4,2.3.4,1.1,0,2.3-.2,3.4-.3,1.1-.1,2.2-.3,3.3-.4.4,0,.7-.1.9-.3h0ZM317.6,51.7c1.2-.4,2.1-.6,2.7-.6.5,0,1,0,1.4.1.5,0,1,0,1.4,0,.3,0,.5,0,.7,0h.7c.9-.2,1.8-.2,2.8-.2,1,0,1.9,0,2.9,0s1.7,0,2.6,0c.9,0,1.7,0,2.6,0s2.2,0,3.4,0c1.1,0,2.2-.1,3.3-.2.6,0,1.3,0,1.9-.1.6,0,1.2,0,1.8-.2l.7.5c.2.2.3.5.4.8,0,.4,0,.7.1,1.1,0,.3,0,.7,0,1,0,.3,0,.6,0,.8-.1.6-.2,1.2-.2,1.8,0,.6-.1,1.2-.2,1.9-.4.4-1,.7-1.6.7-.7.1-1.4.2-2,.3-.7.1-1.4.1-2.1,0-.7,0-1.6,0-2.4.2-1.1.3-1.7.9-1.8,2,0,.4-.1.8-.2,1.2,0,.4,0,.8,0,1.2l-.2,7.8c0,.7,0,1.5,0,2.3,0,.8,0,1.6,0,2.3s0,1.5,0,2.2c0,.7,0,1.5,0,2.2,0,1.1,0,2.2,0,3.3v4.3c0,.3,0,.7,0,1.1-.1,1,0,1.8,0,2.5.1.3.1.6,0,.9,0,.3,0,.6,0,1l-.3,6.3v2.6c0,.3,0,.5,0,.8,0,.3,0,.6,0,.8,0,.5-.4.8-1,.8-.7.1-1.5.2-2.2.2-.7,0-1.4,0-2.2,0-.5,0-1,0-1.5-.2-.5-.2-1-.3-1.4-.4-.3-.9-.4-1.6-.4-2.1,0-1,0-2,0-3,0-1,0-1.9,0-2.9v-2.6c0-.5,0-1,0-1.5,0-.5,0-1,0-1.6,0-.9.1-1.8.2-2.7,0-.9,0-1.7,0-2.6v-9.2c.2-.7.3-1.5.3-2.2,0-.7,0-1.5,0-2.2.1-1.4.2-2.8.2-4.2v-4.2c0-.5-.1-.9-.3-1.3-.1-.4-.3-.8-.5-1.2,0-.1-.1-.2-.3-.4-.1-.2-.3-.3-.4-.4-.5-.3-1-.5-1.5-.8-.5-.2-1.1-.3-1.7-.3h-3.7c-1.1-.1-1.6-.6-1.6-1.6,0-.7-.1-1.5-.2-2.3-.1-.8-.1-1.6,0-2.4,0-.3,0-.7,0-1,0-.3,0-.7,0-1.2h0ZM330.3,76.7c.2-.5.2-1.1.2-1.6,0-.5,0-1.1,0-1.6v-1.6c0-.2,0-.5,0-1l-.2-.2c-.3.9-.4,1.9-.4,3.1s.1,2.2.4,2.8h0ZM333.1,54.1c-.5-.1-.8-.2-.7-.2l-5.1.2c-.2,0-.5,0-.9.2,0,0-.2.1-.4.3.3,0,.7,0,1.4,0,.7,0,1.4,0,2.1,0,.7,0,1.5,0,2.1-.2.7,0,1.1-.2,1.4-.3h0ZM334.2,75.9c-.3.7-.4,1.4-.4,2s0,1.2.2,1.9c.2-.6.3-1.2.3-1.8v-1.8c0,0,0-.1,0-.2,0,0,0-.1,0-.2h0ZM372.5,52c.3-.6.6-.9,1.1-1,.5-.1,1-.2,1.6-.2.6,0,1.3,0,2-.1.7,0,1.3,0,2,0s.3,0,.5,0c.2,0,.5,0,.7.1.4.2.8.4,1,.6.3.3.4.7.4,1.2s0,.6,0,1c0,.3,0,.7-.1,1,0,.3,0,.5,0,.8,0,.2,0,.5,0,.8,0,.3,0,.5.1.7,0,.2,0,.4,0,.5,0,1-.1,1.9-.2,2.8,0,.9,0,1.9,0,2.8s0,2,0,3.1c0,1,0,2,0,3.1s0,.8,0,1.2c0,.4,0,.8,0,1.2,0,1,0,2,0,3.1,0,1,0,2,0,3.1,0,1.3-.1,2.6-.2,3.9,0,1.3,0,2.6,0,3.9,0,1.6,0,3.1,0,4.7s.1,3.1.3,4.7c0,.1,0,.2,0,.2,0,0,0,.1,0,.2-.1,1-.1,2,0,3,0,1,0,2,0,3s0,2.1-.2,3.1c-.1.9-.6,1.3-1.4,1.3-.6-.1-1.2-.1-1.8,0-.6,0-1.2.1-1.9.2-.3,0-.5,0-.8,0h-.8c-.2,0-.4,0-.6,0-.2,0-.3,0-.6-.1-.5-.1-.8-.4-.9-.9,0-.6-.1-1.2-.2-1.7,0-.6,0-1.1,0-1.7,0-.1,0-.4,0-.8,0-.7,0-1.4.1-2,0-.7,0-1.4,0-2,0-.9,0-1.8,0-2.7,0-.9,0-1.8-.1-2.7,0-.6,0-1.2,0-1.8,0-.6,0-1.2,0-1.8,0-.2,0-.4,0-.6,0-.2,0-.4,0-.6,0-.6-.2-1.2-.6-1.7-.4-.5-1-.8-1.8-.8h-5.6c-2,0-3,1-3.1,3.1,0,.3-.1.5-.2.8,0,.3,0,.6,0,.8l-.2,3.5c0,.2,0,.4,0,.6,0,.2,0,.3,0,.5v3.9c0,1.3,0,2.6,0,3.9v3.1c0,.7-.2,1.2-.4,1.4-.2.2-.7.3-1.4.4-.4,0-.7,0-1.1,0s-.7,0-1.2.2c-.4.1-.9.1-1.4.1-.5,0-.9,0-1.4-.1-.6-.2-1.1-.6-1.4-1.3-.2-.4-.3-.9-.3-1.3,0-.5,0-.9-.1-1.4-.1-1.4-.1-2.9,0-4.3v-5c0-.6,0-1.3,0-2,0-.7,0-1.3,0-2,0-1.1,0-2.2,0-3.3,0-1.1,0-2.2.1-3.3,0-.9,0-1.8.1-2.7,0-.9,0-1.8-.1-2.7,0-.3,0-.5,0-.7,0-.2,0-.5,0-.7,0-1.1,0-2.2,0-3.4,0-1.1,0-2.2,0-3.4,0-.9,0-1.8-.1-2.6,0-.8,0-1.7,0-2.6s0-.5,0-.7c0-.2,0-.5,0-.7,0-1.1,0-2.1,0-3.2v-3.2c0-1.2,0-2.5-.2-3.8v-.6c.9-.6,1.7-.8,2.5-.6.4.1.8.2,1.2.2.4,0,.8,0,1.2,0,.4,0,.8,0,1.2,0,.4,0,.8,0,1.2.2,1.3.4,2,1.3,1.8,2.6-.3,1.9-.4,3.7-.5,5.6,0,1.2,0,2.3,0,3.5.1.7.1,1.5.1,2.2,0,.8,0,1.5,0,2.3,0,1,0,1.9,0,2.9v2.8c0,.6.1,1.1.3,1.6.4,1,1.1,1.4,2,1.4.7,0,1.5,0,2.1,0h3.1c.3,0,.6,0,.9,0,.8,0,1.5-.4,2.2-1,.3-.3.4-.6.5-.9,0-.3.1-.7.2-1,.1-.6.2-1.2.3-1.8,0-.6.1-1.2.1-1.9,0-1,0-2,0-3,0-1,0-2,0-3,0-1.2,0-2.5,0-3.7,0-1.2-.1-2.4-.2-3.7v-.2l-.3-1.7c0-.3,0-.5,0-.8,0-.3,0-.5,0-.8h0ZM379.8,62.1c-.3-.1-.6,0-.8,0,0,.3,0,.7,0,1s0,.7.2,1.1c.3-.1.5-.2.4-.2l.3-2h0ZM375.2,94.6c.3-.6.4-1.1.4-1.6v-1.5c0,0,0,0,0,0s0,0,0,0,0,0,0-.2c-.3,1.1-.4,2.2-.2,3.5h0ZM356.9,62.2c.3-1,.3-2,0-3.1,0,.4,0,.7,0,1.1v1.1c0,.1,0,.2,0,.4,0,.2,0,.3,0,.4h0ZM354.2,79.9c-.3.4-.4.7-.4.8s.1.3.4.7v-1.5h0ZM358.3,93.1h0v-.6h0v.6h0ZM379.8,61.1h.2v-.6h-.2v.6h0ZM359.7,51.9v-.2c0,0,0,.2,0,.2h0ZM402.6,97.4c1.2,0,2.5-.1,3.7-.2,1.2,0,2.5-.1,3.7-.2h.2c.5,0,.9,0,1,.2.1.1.2.5.3,1,0,.3,0,.4,0,.5.3.7.4,1.5.4,2.1,0,.7,0,1.4-.1,2.2,0,.1,0,.3,0,.5,0,.2,0,.3,0,.5,0,.5-.3.9-.8,1-.4.1-.7.2-.8.2-.7.1-1.5.2-2.2.2h-4.6c-.9,0-1.7,0-2.5.1-.8,0-1.7,0-2.5.2-1.9,0-3.9.2-5.9.5-.4,0-.9.1-1.3.2-.5,0-.9,0-1.3,0s-1.1-.1-1.8-.4c-.3-.2-.4-.4-.4-.7,0-.3.1-.7.2-1.1,0-.3,0-.5,0-.7,0-.2,0-.4,0-.6.1-.6.1-1.1,0-1.5,0-.4,0-.9,0-1.4,0-.3,0-.6,0-.9,0-.3,0-.7,0-.9,0-.1,0-.2,0-.4,0-.2,0-.3,0-.4,0-1.3,0-2.6,0-3.8-.1-1.3-.1-2.5,0-3.8,0-1.3,0-2.6,0-3.8v-3.7c0-.9,0-1.8,0-2.7,0-.9,0-1.8,0-2.7,0-1.4,0-2.8,0-4.1,0-1.3,0-2.7,0-4.1,0-1.4,0-2.8-.2-4.3,0-1,0-1.9,0-2.8,0-.9,0-1.9,0-2.9v-4.9c0-.3,0-.5,0-.7,0-.2,0-.4,0-.7,0-.3,0-.5,0-.6.1-.2.2-.3.3-.6.4-.8,1.1-1.2,2.2-1,1.6.2,3.1.3,4.6.3,1.5,0,3.1,0,4.6,0,.6,0,1.3,0,1.9,0,.6,0,1.3,0,1.9,0,.3,0,.6,0,1-.1.3,0,.6,0,.9,0,.9,0,1.8-.1,2.7-.2.9,0,1.8,0,2.7,0,.8,0,1.3.1,1.5.3.2.1.3.7.2,1.8,0,.3,0,.7,0,1,0,.3,0,.7-.1,1.1-.2.8-.3,1.8-.3,3s-.5,1.4-1.5,1.4c-.9,0-1.7,0-2.5,0-1.1,0-2.1,0-3.1-.2-.9-.1-1.8-.1-2.6,0-.8,0-1.7.1-2.5.1s-1.6.3-2.1,1c-.3.5-.6,1.1-.8,1.6-.2.5-.3,1.1-.3,1.7,0,.3,0,.6,0,.9,0,.3-.1.6-.2.8-.1.4-.2.9-.2,1.4v2.7c0,.4,0,.8,0,1.2,0,.5,0,1.1.2,1.6.3,1.1.9,1.7,2,1.8.6.1,1.3.2,2,.3.7.1,1.4.1,2.1,0,.5,0,1,0,1.5,0h1.2c.3,0,.7,0,1.1-.2.1,0,.4,0,.8,0,.9,0,1.4.5,1.7,1.3.1.4.2.9.3,1.4,0,.5,0,.9,0,1.4,0,.4,0,.8,0,1.2v1.1c0,1.3-.7,2-2.1,2h-.4c-1.2-.2-2.4-.3-3.5-.2-1.2,0-2.4,0-3.6,0-1.5,0-2.5.7-3,2.2-.1.3-.2.6-.2,1,0,.3,0,.6-.1,1l-.2,2.1c0,1.1,0,2.1,0,3.1,0,1,0,2,0,3.1,0,.3,0,.5,0,.7,0,.2,0,.5,0,.7,0,.8.4,1.4,1.2,1.8.5.3,1.2.4,1.9.4l3.4-.4v.2h0ZM399.3,99.9c-.4,0-.8,0-1.2,0-.4,0-.8.1-1.2.4.7,0,1.2,0,1.5,0,.2,0,.6-.1,1-.4h0ZM396.4,98.8c.5.1.9.2,1,.2s.3,0,.6-.2c-.3-.2-.6-.2-.8-.1-.2,0-.5.1-.8.1h0ZM393.6,55.6c-.1.3-.2.5-.2.6s0,.3.2.6c.5-.5.5-.9,0-1.1h0ZM390.1,57.4c0,0-.1,0-.2,0-.3.4-.2.8.2,1.2v-1.1h0ZM404.7,56.2c-.3-.2-.5-.3-.6-.3-.1,0-.3.2-.7.4l1.4-.2h0ZM406.5,56h.4c-.2,0-.3-.1-.4-.2v.2h0ZM399,99l.2-.2h0c-.1,0-.2,0-.2,0s0,0,0,0l.2.2h0ZM396.5,79.5h0c0,0,.2,0,.2,0,0,0,0,0,0,0l-.2.2h0ZM393.5,102.8c0,0,0,0-.1,0,0,0,0,0-.1,0h0c0,.1,0,.2,0,.2,0,0,0,0,0,0,.1,0,.2,0,.2,0h0ZM391.7,102h0c0,0,0,0,0,0h0ZM431.7,83.5c-1.7,0-3-1.5-2.9-3.2,0-1.7,1.5-3,3.2-2.9,14,.6,27.3,1.4,39.8,2.3,12.7,1,24.9,2.1,36.2,3.4,1.7.2,2.9,1.7,2.7,3.4-.2,1.7-1.7,2.9-3.4,2.7-11.1-1.3-23.2-2.4-36-3.4-12.7-1-26-1.7-39.6-2.3h0ZM168.9,252.9c-.1.2-.2.3-.2.4,0,0,0,.1,0,.2-.6.9-1.2,1.5-1.9,1.9-.7.4-1.6.7-2.5,1l-6.4,1.1c-.2,0-.4,0-.5,0-.2,0-.4,0-.5,0-.5-.4-.9-1-1.2-1.6-.2-.6-.4-1.3-.5-2-.2-1.3-.5-2.6-.7-3.9-.2-1.3-.5-2.6-.8-3.9-.3-1.7-.6-3.5-1-5.3-.4-1.8-.7-3.5-1.1-5.2l-2.5-14.2c0-.5-.2-1.3-.4-2.3-.2-1-.4-2.1-.6-3.3-.2-1.2-.5-2.3-.6-3.3-.2-1-.3-1.8-.4-2.3-.3-1.6-.6-3.2-.9-4.8-.3-1.6-.7-3.3-1.1-4.9-.3-1.6-.5-3.1-.7-4.7-.2-1.6-.4-3.1-.5-4.7l-.9-6.6c0-.3,0-.5,0-.9,0-.3,0-.6,0-.9,0-.2,0-.4,0-.5,0-.2,0-.4,0-.5-.3-2.5-.6-5.1-1-7.7-.4-2.6-.8-5.2-1.1-7.7-.3-1.6-.3-3,0-4,.6-.5,1.5-.8,2.5-1,2.5-.3,5.3-.8,8.2-1.6,2.9-.8,5.4-1.9,7.6-3.1,1.6-.8,2.9-1.8,4.1-2.8.5-.5,3.8-3.4,3.9-3.5.3-.2.6-.4.8-.7,1.3-1.4,2.6-2.7,4-3.9,1.4-1.2,2.8-2.5,4.2-3.7,1.5-1.3,3-2.3,4.7-3.3,1.6-.9,3.2-1.9,4.8-2.9,1.4-.9,2.9-1.5,4.5-2,1.6-.5,3.3-.6,5-.5.9,0,1.7,0,2.5,0,.8,0,1.6.1,2.5.3,1.5.3,2.8.8,4.1,1.4,1.2.6,2.5,1.3,3.7,2.2l3.3,2.3c1.9,1.3,3.7,2.7,5.3,4.5.7.7,1,1.3,1,1.7,0,.4-.2.9-.7,1.7,0,.1-.1.2,0,.3l-4.3,5.6-.8,1.1c-.5.7-1.1.9-1.4.9-.3,0-.8-.2-1.5-.8-1.5-1.3-3-2.3-4.7-3.2-1.7-.9-3.4-1.7-5.1-2.5-1.5-.7-3.1-.8-4.8-.6-1.3.1-2.6.3-3.8.9-1.2.5-2.4,1.2-3.5,1.9-.9.5-1.7,1.1-2.4,1.7-.7.6-1.3,1.3-2.1,2-.7.6-1.3,1.2-1.9,1.9-.6.7-1.2,1.4-1.8,2-6.2,6.5-1.8,2-8.6,7.9-1.4,1.2-2.8,2.2-4.3,3.2-.8.5-1.6.9-2.3,1.3-.7.4-1.5.9-2.2,1.4-2.3,1.6-3.3,3.9-3,6.7l1.3,13.5.9,7.3c0,.4.2.8.3,1.1,0,.3.2.7.3,1.1.2,1.2.9,1.9,2.1,1.9,1,.3,2,.4,3,.3,1.3-.2,2.6-.5,3.8-.7,1.2-.3,11.8-3.3,13-3.7.5-.2,1-.3,1.6-.4.6,0,1.1-.2,1.6-.3.8-.1,1.4.1,2,.7.2.4.5.8.8,1.2.3.4.5.9.6,1.4,0,1,.2,1.9.4,2.7.2.9.4,1.8.5,2.7,0,.4,0,.9,0,1.3,0,.4,0,1-.1,1.6,0,1.3-.8,2.3-2.2,3l-2.8.9c-.7.2-1.3.4-1.9.5-.6.1-1.2.2-1.8.3-.5,0-10.3,2-10.8,2-1.6.1-5.4,2.1-5.6,4.8-.2,1.8-.2,3.5,0,5.1.1.9.3,1.7.3,2.6,0,.8.2,1.7.3,2.7.2,1.2.4,2.4.6,3.7.2,1.3.5,2.5.8,3.7.3,1.6.6,3.2.9,4.8.3,1.6.6,3.1.9,4.7.1.6.2,1.2.2,1.8,0,.6,0,1.2,0,1.9h0ZM224.5,185.3h0c.3-1,.5.7,0,0h0c0-.1-.2-.5-.2-.5,0,0,0,.2,0,.3,0,0,0,.2,0,.3h0ZM210.2,245.5h0c0-.1-.1-.1-.1-.1h.1ZM376.3,232c-.8.2-1.6.2-2.4.2-.8,0-1.7-.1-2.6-.1h-6.5c-.5-.4-1.1-1-1.6-1.8-.5-.8-.9-1.5-1.1-2.2-.8-2.4-1.8-4.6-2.9-6.8-1.1-2.2-2.3-4.4-3.4-6.6-.7-1.2-1.4-2.5-1.9-3.7-.6-1.3-1.2-2.5-1.8-3.7-.3-.6-.6-1.2-.9-1.8-.4-.6-.7-1.2-1.1-1.8,0-.2-.2-.4-.3-.5,0-.2-.2-.4-.4-.7l-7.4-15.1-2-4.3c-.3-.8-.7-1.5-1.1-2.2-.5-.7-1-1.3-1.7-2l-.8-.5c-.7-.3-1.2-.2-1.6.4-.2.3-.3.6-.3.9,0,.3-.1.6-.3,1v.7c0,1.5,0,3,0,4.5,0,1.5,0,3,.2,4.5,0,1.7,0,3.3,0,5,0,1.7,0,3.4.2,5.1,0,.4,0,.8,0,1.1,0,.3-.1.7-.2,1.1v3.3c0,.7,0,1.4,0,2.1,0,.7,0,1.4-.1,2.1,0,1,0,2,0,3,0,1,0,2,0,3,.1,1.9.2,3.8.3,5.7.1,1.9,0,3.8-.2,5.9v.8c0,.4,0,.7,0,1,0,.3,0,.6-.3.9-.6.8-1.4,1.3-2.4,1.5-.7,0-1.4.2-2,.2-.6,0-1.3,0-2,0-.7,0-1.5,0-2.2,0-.8,0-1.5,0-2.2-.2-.4,0-.8,0-1.2,0-.4,0-.7-.1-1.2-.2-.3-1.5-.5-2.9-.6-4.3-.1-1.4,0-2.9.4-4.4.3-.9.4-1.8.3-2.6,0-.9,0-1.8,0-2.8,0-1,0-2,0-3,0-1.1,0-2.1,0-3,0-1.5,0-2.9-.1-4.4,0-1.4,0-2.9,0-4.4,0-1.1,0-2.1,0-3.2,0-1.1,0-2.1,0-3.2v-5.7c0-.9,0-1.7-.1-2.6,0-.8,0-1.7,0-2.7v-8.7c0-1,0-2,0-3,0-1,0-2,0-3,0-1.2,0-2.4-.1-3.6,0-1.1,0-2.3-.1-3.6v-4s0-3.7,0-3.7c0-.6.1-1.2.2-1.8,0-.6,0-1.2,0-1.8v-7.3c0,0,0-2.4,0-2.4,0-.6.4-1.1,1-1.3.5-.2,1.1-.4,1.6-.6.5-.2,1.1-.3,1.8,0,1,.2,2,.3,3,.3,1,0,2,0,3.1,0,1-.2,1.8.2,2.6,1.2.9,1,1.6,2.2,2,3.5l3.8,8.1,1.6,3.3c.5,1,1,2.1,1.5,3.2.4,1.1,1,2.1,1.6,3.2,1.1,2,2.1,4.1,3,6.2.9,2.1,2,4.2,3,6.2l4.6,8.1c.2.5.3.7.3.7.5,1.2,1,2.4,1.7,3.4.7,1,1.2,2.2,1.7,3.4.6,1.4,1.5,2.5,2.5,3.4,1.1.9,1.9.7,2.6-.6.7-1.6,1-2.9,1-4,0-1.5,0-3,0-4.4,0-1.5,0-2.9-.2-4.4,0-1.2-.1-2.5-.1-3.7,0-1.2,0-2.5,0-3.7,0-1.3,0-2.6,0-4,0-1.3,0-2.6-.2-3.8-.1-1.7,0-3.3,0-4.9.1-1.6.2-3.2.2-4.8,0-2,0-4,0-5.9,0-1.9,0-3.9,0-5.8,0-.5,0-1.1,0-1.6,0-.5.1-1,.2-1.5,0-.6.3-1,.9-1.1.4,0,.8-.2,1.2-.2.4,0,.6,0,.8,0,.7,0,1.4-.1,2.2-.2.7,0,1.5,0,2.2,0,.6,0,1.2,0,1.8,0,.6,0,1.1.2,1.7.4.7.4,1.2,1,1.5,1.6l.3,2c.2,1.5.3,3,.2,4.4,0,1.5-.1,2.9-.3,4.4,0,2.5-.1,4.9-.1,7.3,0,2.4,0,4.9,0,7.3,0,1.1,0,2.2,0,3.3,0,1.1,0,2.2,0,3.3l-.2,11.5c.3,1.3.3,2.6.2,4-.2,1.3-.2,2.6,0,4,.2,1.2.3,2.5.3,3.8,0,1.3,0,2.6,0,4v.9c.3,2.4.4,4.8.4,7.2,0,2.4,0,4.8.3,7.2.1,1.9.1,3.8.1,5.7,0,1.9,0,3.8,0,5.9v1.5c0,1-.6,1.7-1.7,2.1h0ZM438.5,230.5c.2.7,0,1.3-.7,1.7-.4.2-.9.3-1.3.6-.4.2-.8.3-1.3.3-1.3.1-2.6.2-4,.3-1.3,0-2.7,0-4.1-.3-.3,0-.5,0-.7,0-.2,0-.5-.1-.7-.2-.7-.1-1.2-.5-1.5-1.2-.2-.3-.3-.5-.4-.8-.1-.3-.3-.6-.4-.9-.5-1.2-1-2.3-1.5-3.4-.5-1.1-1-2.3-1.5-3.5-.4-1.2-.8-2.7-1.2-4.3l-1.3-4.1-4-10.8c-.3-.7-.7-1.4-1.1-2-.4-.6-.9-1.2-1.6-1.6-.9-.4-1.6-.3-2.3.3-.2.3-.4.6-.6.9-.2.3-.4.7-.6,1-.6,1.2-1.2,2.4-1.8,3.6-.6,1.2-1.2,2.5-1.6,3.8-.2.8-.4,1.6-.5,2.4-.1.8-.2,1.6-.3,2.4-.1.7-.2,1.4-.3,2.1,0,.7-.1,1.4-.1,2.1v1.7c0,0,0,9.4,0,9.4,0,.8-.2,1.3-.4,1.6-.3.3-.8.5-1.6.7-.5.2-1.1.3-1.6.4-.5,0-1.1.1-1.6.2-1.1.1-2.1.2-3.1.2-1,0-2-.1-3.1-.2-.4,0-.9-.1-1.2-.3-.4-.2-.8-.4-1.4-.6,0-.4,0-.8,0-1.1,0-.3,0-.6,0-1,.2-2.2.4-4.4.5-6.6,0-2.2.3-4.4.7-6.7.1-.7.2-1.4.1-2.2,0-.7,0-1.5,0-2.2,0-2.6,0-5.1,0-7.7,0-2.6.1-5.1.3-7.6.2-2,.4-4,.5-5.9.1-1.9.2-3.9.4-5.9l.2-7.5c.1-.7.2-1.4.3-2,0-.6.1-1.2.1-1.8.1-1.7.2-3.3.2-4.9,0-1.6,0-3.2,0-4.7,0-2.3.2-4.5.3-6.7.1-2.2.2-4.4.3-6.6v-2.9c.1-.8.1-1.6,0-2.4,0-.8,0-1.6-.1-2.4l1.5-1.8c.7-.2,1.2-.2,1.5-.2,1.5,0,2.9,0,4.3.1,1.4,0,2.8.1,4.3.3,2.4,0,3.3,1.2,2.7,3.2-.5,1.7-.7,3.3-.7,4.9,0,1.6,0,3.2,0,4.8,0,.4,0,.7,0,.9,0,.3,0,.6,0,.9l-.7,10c0,1.8-.1,3.5-.2,5.1,0,1.7,0,3.4,0,5.1,0,.2.1.4,0,.5,0,.2,0,.4,0,.5,0,.5.2.8.8.9.6.1,1.1,0,1.3-.4.3-.5.6-1,.9-1.6.3-.5.6-1,.8-1.6,1.2-2.5,2.4-5,3.7-7.5,1.2-2.5,2.5-5,3.8-7.5,1.3-2.4,2.5-4.9,3.7-7.3,1.2-2.5,2.4-5,3.6-7.5.7-1.3,1.3-2.2,1.9-2.6.6-.4,1.8-.6,3.5-.6l4.9.7c.4,0,.9,0,1.3,0,.4,0,.9,0,1.3,0,1,0,1.7.2,2.2.9.5.6.6,1.4.3,2.3,0,.3-.2.5-.4.7-.1.2-.3.5-.4.7-.5.7-.9,1.4-1.2,2.2-.3.8-.7,1.5-1.2,2.2-.5.9-.9,1.7-1.3,2.6-.4.9-.9,1.7-1.3,2.6-1,1.7-2,3.5-2.9,5.3-.9,1.8-1.9,3.6-2.8,5.4-.2.3-.3.6-.5.9-.1.3-.3.7-.5,1-.8,1.7-1.6,3.4-2.5,5.1-.6.8-1,1.6-1.4,2.5-.4.9-.6,1.9-.7,2.8-.5,3.1-.2,6,.9,8.9.8,2,1.6,4.1,2.3,6.2.7,2.1,1.4,4.2,2,6.3.5,1.9,1,3.7,1.7,5.5.6,1.8,1.3,3.6,2.1,5.4.2.4.3.9.4,1.3.1.4.3.9.4,1.3.8,2,1.6,4.1,2.5,6.1.8,2,1.7,4,2.7,5.9.4.6.7,1.3.9,1.9.2.6.3,1.2.5,1.9h0ZM457.7,144.4c2-.6,4-.7,6-.3.5.1,1.1.2,1.6.2.6,0,1.1,0,1.6.2.7,0,1.4.2,2,.3.6.1,1.3.5,1.8,1,.5,1,.6,2.3.3,3.9-.3,1.2-.5,2.4-.7,3.5-.2,1.1-.3,2.3-.4,3.5,0,1-.2,1.9-.4,2.7-.2.9-.2,1.7-.2,2.6-.1,2.5-.4,5-.7,7.4-.3,2.4-.7,4.9-1,7.4-.3,1.7-.6,3.5-.7,5.2-.2,1.7-.3,3.4-.5,5.2v.3c-.4,1.9-.6,3.8-.9,5.7-.2,1.9-.5,3.8-1,5.7-.2.8-.3,1.6-.4,2.4-.1.8-.2,1.6-.1,2.4,0,1.1,0,2.1-.2,3.2-.1,1-.3,2.1-.5,3,0,.3,0,.7,0,1.5,0,.7,0,1.5,0,2.3,0,.8,0,1.5,0,2.2,0,.7,0,1.1,0,1.4.1,1.3.8,2.6,2.1,3.8.4.4.9.7,1.4.8.5.1,1,.2,1.6.3.9.2,1.7.3,2.5.3.8,0,1.6,0,2.5.2h4.8c.8,0,1.6.2,2.4.2.8,0,1.5.2,2.2.3.9,0,1.6.5,2.2,1.1.1.7.2,1.4.3,2.1,0,.7,0,1.4-.1,2.1l-.6,3.7c0,.2,0,.4-.1.8,0,.3-.2.7-.3,1.2-.5,1.6-1.7,2.4-3.5,2.2-2.1-.2-4.2-.4-6.3-.6-2.1-.2-4.2-.3-6.2-.4-1,0-2,0-3-.2-1-.1-2-.2-3-.3-.9,0-1.7-.1-2.5,0-.8,0-1.6,0-2.5,0-.5,0-1.1,0-1.7,0-.6,0-1.1,0-1.6,0-1.6-.1-2.8-.4-3.8-.9-1.5-.6-2.3-1.7-2.4-3.3,0-.5,0-1.1,0-1.6,0-.5,0-1,.2-1.4.3-1.5.5-2.9.6-4.3,0-1.4.2-2.8.3-4.3.1-1.4.2-2.8.4-4.1.1-1.4.3-2.7.5-4.1,0-.2,0-.4.1-.7,0-.3.1-.5.1-.8l.8-4.7.3-3.3c.3-1.5.5-3,.7-4.5.1-1.5.3-3.1.4-4.7l.4-4.5c.2-1.3.4-2.6.5-3.9.1-1.3.2-2.5.3-3.7l.3-3.5,1.2-9.4,1.6-12.4c.1-1.1.2-2.3.2-3.4,0-1.1,0-2.2,0-3.4,0-.6.1-1.2.2-1.8,0-.6.3-1.2.7-1.7h0ZM509.5,231.1c0,.9-.2,1.7-.2,2.6,0,.8-.1,1.7-.2,2.6-.3,2.4-.5,3.8-.7,4.4-.2.6-.4,1.2-.6,1.7-1.6.5-3.1.8-4.5.8-1.5,0-2.9-.2-4.4-.5-.5-.1-1.1-.2-1.6-.2-.6,0-1.2-.1-1.8-.3-.9-.2-1.4-.4-1.5-.6-.2-.2-.2-.8-.2-1.6,0-1.6.2-2.8.4-3.7.2-.9.3-1.9.5-3,0-.5,0-1.1.1-1.6,0-.6,0-1.1.2-1.6l.2-1.4c.3-.8.7-1.2,1.5-1.2.5-.1.9-.2.9-.2,1.3.1,2.6.3,4,.4,1.4.1,2.7.4,4.1.8.4.1.8.2,1.1.3.3,0,.7.1,1.1.2,1.2.4,1.8,1.2,1.7,2.3h0ZM515.4,183.6c0,.5-.1,1-.2,1.5,0,.5-.2,1-.3,1.5-.4,2-.7,4-.9,6-.2,2-.5,4-.8,6-.1,1-.2,1.9-.4,2.8-.1.9-.3,1.9-.4,2.8-.3,1.9-.5,3.8-.8,5.8-.2,1.9-.4,3.8-.6,5.8,0,.5-.1,1-.2,1.6-.1.5-.2,1-.4,1.4-2.9.9-5.9,1-8.9.2-.6-.2-1.2-.3-1.8-.3-.6,0-1.2-.1-1.8-.2-.8-.2-1.3-.4-1.5-.6-.2-.2-.3-.8-.3-1.6.2-1.5.3-3,.4-4.5.1-1.5.2-3,.3-4.5.2-1.8.4-3.7.7-5.5.2-1.8.5-3.6.7-5.4,0-.7.2-1.4.4-2.1.2-.7.3-1.5.5-2.3l1-5.5c.1-1.1.2-2.2.3-3.3,0-1.1.2-2.1.3-3.3l.8-7.7c.1-1.3.3-2.6.4-4,.1-1.4.2-2.7.3-4.2.1-1,.3-2.1.4-3.1.2-1,.3-2.1.4-3.1l.3-3.1c0-.7.2-1.2.3-1.4.2-.6.6-1,1.3-1.1.7,0,1-.2,1-.2h0,0c1.4.2,2.8.3,4.1.4,1.4.1,2.7.4,4.1.8.4.1.8.2,1.2.3.3,0,.6.1.9.2,1.3.4,1.9,1.2,1.7,2.3,0,.8,0,1.6-.1,2.4,0,.8-.2,1.6-.3,2.4-.2,2.4-.4,4.7-.6,7.1-.3,2.4-.5,4.7-.8,7-.2,1.5-.3,3-.4,4.4-.1,1.4-.3,2.9-.4,4.4h0Z"/>
  <path class="st4" d="M163,348.2c0-.4,0-.7,0-1.1,0-.4,0-.7.2-1,.1-.3.2-.6.4-.9.2-.3.3-.6.5-.9l.4-.6c.2-.4.5-.7.7-1.1l.4-.5c.2-.3.4-.6.6-.8.2-.2.3-.5.5-.7.1-.2.9-1.1,1.1-1.3.4-.3.8-.6,1.2-.6.4,0,.8,0,1.2.2.3.2.7.3,1.1.4l.4.2c.2,0,.5.2.8.3.3.1.5.3.8.4.6.4,1.2.7,1.8,1,.6.3,1.2.6,1.9.8,1.2.4,2.4.8,3.7,1.2l.7.2c.1,0,.2,0,.3,0,.2,0,.3,0,.4,0l.4.2c.8.4,1.7.7,2.5.9.8.3,1.7.5,2.6.7.9.2,1.7.4,2.7.5.9.2,1.8.3,2.8.5.6,0,1.3.1,2,0,.7,0,1.6-.2,2.4-.3l1.5-.3c1.5-.4,2.9-.8,4.4-1.2h.3c0-.1.3-.3.3-.3.6-.4,1.2-.9,1.8-1.3.6-.5,1.2-.9,1.7-1.4.6-.4,1.1-.9,1.6-1.4.5-.5,1-1,1.4-1.5.2-.3.4-.5.6-.8.2-.3.3-.6.5-.8l.5-.9.5-.9c.6-.9,1.2-1.9,1.6-2.8.5-1,.8-2,1.1-3.1.4-1.5.6-3,.6-4.5,0-1.5-.1-3.1-.5-4.6-.2-.8-.4-1.6-.7-2.3-.3-.7-.7-1.4-1.1-2h0c-.1-.2-.3-.4-.3-.7-.2-.4-.4-.8-.6-1.2-.2-.4-.5-.8-.8-1.2l-.9-1.2c-.3-.4-.6-.9-.9-1.3-.5-.6-1.6-1.4-2.2-1.9l-2.1-1.7-.6-.5c-.2-.1-.4-.2-.6-.3-.2,0-.5-.1-.8-.2-.3,0-.5-.2-.8-.3l-.4-.2c-.4-.2-.9-.3-1.4-.3-.6,0-1.1.1-1.7.3-.6.2-1.1.5-1.5.8-.4.3-.8.7-1.1,1.2-.4.5-.6,1.1-.8,1.6-.2.5-.2,1-.2,1.5v.4c0,.4,0,.8,0,1.3v.2c0,.5,0,1-.2,1.5l-.2,1.2c0,.2,0,.4,0,.6,0,.2,0,.4.1.5,0,.2.1.4.2.6,0,.2,0,.4,0,.6,0,.1,0,.3,0,.4v.5s-.2,2.3-.2,2.3c0,.8,0,1.5-.1,2.2,0,.7,0,1.5,0,2.2,0,.7,0,1.5.1,2.2l.2,2.1v2.1c.1.9-.1,1.6-.6,2-.5.5-1.2.8-2.1.9l-2.6.3c-.4,0-.9,0-1.3,0-.5,0-.9,0-1.4,0h-.3c-.3,0-.5-.1-.7,0h-.6c0,0-.6.1-.6.1-.3,0-.6,0-.9-.2-.3-.1-.5-.4-.6-.7l-.2-.3-.2-.3c-.1-.1-.2-.3-.3-.5,0-.2,0-.4,0-.6,0-.9,0-1.7,0-2.5v-1.2s0-4.2,0-4.2c0-.5,0-.9,0-1.4,0-.5-.1-1-.2-1.5,0-.4,0-.7,0-1.1,0-.4,0-.8,0-1.1v-1.1s0-1,0-1c0-.1,0-.2,0-.3,0-.1,0-.3,0-.4v-.4c-.1-.2-.2-.4-.2-.6,0-.2,0-.4,0-.7v-1.6c.1-.3.1-.6.1-.9,0-.2,0-.5,0-.7v-.6s-.1-.9-.1-.9c0-.4-.1-.8-.1-1.2h0c0-.8,0-1.4,0-2v-10.3c0-1.1,0-2.3,0-3.4v-.2c0-1.1,0-2.2,0-3.2s0-1.7,0-2.5c0-.9.1-1.8.2-2.7,0-.3,0-.6,0-.9v-.8c0-.4,0-.7,0-1.1,0-1.6.2-3.3.3-4.9v-1.1c0,0,0-.9,0-.9,0-.6,0-1.2,0-1.8,0-.3,0-.5,0-.8,0-.2,0-.5,0-.7v-1.5c.1-.5.3-.9.6-1.3.3-.3.7-.6,1.2-.8.4-.2.7-.3,1.1-.4.4-.1.7-.2,1-.2.6,0,1.2-.1,1.9-.3.7-.2,1.4-.4,2.1-.7.2,0,.5-.2.8-.2.2,0,.5,0,.7,0,.2,0,.5,0,.7,0h.6c.5-.1.8-.1,1,0,0,0,0,0,.1,0,.5-.2,1-.3,1.5-.5.5-.1,1-.2,1.5-.3.6,0,1.2-.1,1.8-.2h1.2c0,0,.5-.2.5-.2.2,0,.3,0,.5,0h.5s.5-.1.5-.1c1-.2,1.9-.3,2.8-.2.9,0,1.8.1,2.6.4h.2c.6.2,1.2.4,1.8.5.6.1,1.2.3,1.7.4h.4c.9.4,1.8.7,2.5,1.2.8.5,1.4,1.1,2,1.8l2.1,2.6c.4.5.8,1.1,1.2,1.7.3.6.6,1.2.9,1.9l.7,1.9.7,2v3.6c0,.4,0,.8-.1,1.2l-.2,1.2c0,.5-.2,1-.2,1.4,0,.6-.2,1.2-.3,1.8-.2.6-.3,1.2-.6,1.8l-.7,1.8-.8,1.8c-.1.2-.2.5-.4.7l-.5.7c-.3.4-.6.8-.8,1.2l-.4.6c-.4.6-.7,1.2-1,1.8-.1.2-.2.4-.2.7,0,.2,0,.5,0,.7,0,.2,0,.3.2.5.1.2.4.4.6.6.5.4.9.7,1.4,1.1l1.3,1.2c.5.5,1,1,1.4,1.5l.7.7c.6.6,1.2,1.3,1.7,2,.2.4.4.7.6,1.1.2.3.4.7.5.9.4.6.7,1.2,1,1.8l.2.3c.4.7.8,1.4,1.1,2.1.3.7.6,1.4.9,2.1.3.7.5,1.4.7,2.2.2.7.4,1.5.5,2.3.1.6.2,1.3.3,1.9,0,.6.1,1.3.2,1.9,0,.7,0,1.3,0,2,0,.6-.1,1.3-.2,1.9,0,.4-.1.8-.1,1,0,.2,0,.4,0,.5,0,.5,0,1,0,1.4,0,.5-.1,1-.2,1.4l-.3,1c-.1.5-.3,1-.4,1.5h0c0,.3-.1.7-.5,1.1,0,.2-.1.3-.2.4v.2c0,0-.2.2-.2.2v.2c0,.3-.1.5-.2.7,0,.3-.2.5-.3.7-.1.3-.3.6-.5.9l-1.1,2c-.6,1.1-1.2,2.2-1.8,3.2-.7,1.2-1.5,2.3-2.4,3.3-.9,1-1.9,1.9-2.9,2.7-.7.6-1.4,1.1-2.1,1.6-.7.5-1.4,1-2.2,1.5l-.6.4c-.5.3-1,.6-1.5.9l-.4.2c-.6.3-1.1.5-1.8.8l-1.9.8-1.9.8c-.6.3-1.3.5-2,.6-.7.2-1.4.3-2.1.4h-.3c-.4.1-.7.2-1.1.2s-.5,0-.7,0h-.6c-.5,0-1,0-1.5,0h-.7c-.4,0-.8,0-1.3,0h-1.9c-.7,0-1.3,0-1.9-.1-.5,0-1,0-1.5-.2-.5,0-1-.1-1.5-.2l-4.8-.9c-.6-.1-1.3-.3-1.9-.4-.6-.2-1.2-.3-1.8-.5l-1.7-.6c-1.8-.7-3.6-1.3-5.3-2-1.4-.6-2.9-1.2-4.3-1.8h0s0,0,0,0h-.1c0,0-.3-.1-.3-.1-.1,0-.3,0-.4-.2h-.2c-.5-.3-.9-.4-1.3-.5-.4-.2-.9-.4-1.2-.6-.3-.2-.7-.4-1.1-.6l-1.4-.7v-.2h0ZM283,256.8c.8-.4,1.6-.6,2.2-.8.7-.2,1.2-.3,1.7-.2h.2c.6,0,1.2,0,1.8,0h2c.4,0,.8,0,1.3,0,.2,0,.4,0,.6,0,.7-.1,1.3-.2,2-.3.7,0,1.3-.1,2-.1h2s3.8-.1,3.8-.1h3.5c0,0,4.1-.2,4.1-.2l3.1-.2c1.3,0,2.5-.2,3.8-.3l2.6-.2c.4,0,.8,0,1.2-.1.4,0,.8-.1,1.2-.2h.2s.5.3.5.3c.2.1.4.3.6.4.2.2.4.4.5.6.1.2.2.5.2.7,0,.5.1.9.2,1.3,0,.7,0,1.5.1,2.2,0,.2,0,.4,0,.6,0,.4-.2.8-.2,1.2,0,.4-.1.8-.1,1.2v1.3c-.2.4-.2.9-.3,1.3h0c0,.1,0,.2,0,.2-.3.3-.7.6-1.1.8-.4.2-.9.3-1.4.4-.6,0-1.2.2-1.8.3l-1,.2c-.5,0-1,.1-1.5.1-.5,0-1,0-1.6,0-.5,0-1,0-1.5,0-.5,0-1.1.2-1.7.3-.7.2-1.2.5-1.5.8-.4.4-.6.9-.7,1.6l-.2,1.6c0,.4,0,.8,0,1.2v3.8c-.1,2.4-.2,4.8-.2,7.2v.9c0,.8,0,1.5,0,2.3v.3c0,1,0,1.9,0,2.9s0,2,0,3.1c0,.5,0,1.1,0,1.6v1.5s0,1.2,0,1.2c0,1.1,0,2.1,0,3.2v5.9c0,.2,0,.5,0,.8v.8c-.2.6-.2,1.2-.2,1.8,0,.5,0,1,.2,1.5,0,.2.1.4.1.6,0,.2,0,.5,0,.7v.6c0,0-.3,4.2-.3,4.2,0,1.7-.2,3.3-.3,4.9v4.2s0,.5,0,.5c0,.2,0,.4,0,.7,0,.2,0,.4,0,.6,0,.5-.3.8-.6,1.1-.3.2-.7.4-1.2.4-.5,0-1,.1-1.5.2-.5,0-1,.1-1.5.2-.6,0-1.3,0-2,.1h-1c-.4,0-.8,0-1.1,0-.4,0-.8,0-1.1-.2l-1-.3-1.3-.3v-.3c-.3-.6-.4-1.2-.5-1.7-.1-.5-.2-.9-.2-1.3,0-1.3,0-2.7,0-4v-2s0-5.5,0-5.5c0-.7,0-1.3,0-2l.2-4,.2-3.5v-1.8c0-1.4,0-2.8,0-4.1,0-2.8,0-5.6,0-8.3,0-.6.1-1.1.2-1.6,0-.5.2-1,.2-1.5v-1.4c0-.6,0-1.1,0-1.7v-1.1c.2-1.5.2-3,.2-4.5v-1.5c0-1.4,0-2.8,0-4.2,0-.3,0-.6-.1-.9,0-.3-.2-.6-.2-.8,0-.3-.2-.5-.3-.8l-.4-.8c0,0-.1-.2-.3-.4l-.5-.5-1-.5-1-.5c-.3-.1-.7-.2-1-.2-.4,0-.7,0-1.1,0l-2.6.2c-.8,0-1.7,0-2.6,0-.8,0-1.5-.2-1.9-.6-.5-.4-.7-1.1-.7-1.9,0-.9-.2-1.9-.3-2.8v-.2c0-.5-.1-1.1-.1-1.6s0-1.1.1-1.7v-.6c0-.2,0-.4,0-.6v-.8s0-1.1,0-1.1h.3ZM275.7,259.8c0,.9,0,1.6,0,2.2v.5c0,.5.1.9,0,1.4l-.4,8.3v3.3c-.1,0-.3,10.1-.3,10.1,0,.2,0,.5,0,.7v.5c0,0-.1,1.2-.1,1.2,0,.3,0,.7-.2,1l-.2,1.1c0,.3,0,.7-.1,1,0,.2,0,.4,0,.6v.3c0,.2,0,.4,0,.7v.4c0,0,0,.3,0,.3,0,.2,0,.3,0,.5l-.2,1.8c-.1.9-.2,1.8-.3,2.6,0,.8-.2,1.6-.4,2.3-.2.8-.4,1.5-.6,2.2-.2.7-.6,1.4-.9,2-.4.6-.8,1.2-1.3,1.8-.5.5-1,1-1.4,1.4-.5.4-1,.8-1.5,1.2-.5.4-1,.7-1.4.9-.5.3-.9.5-1.3.7l-1.1.4-.7.2-.7.2c-.2,0-.5.1-.8.1l-1.5.2c-.4,0-.7,0-1.1,0-.5,0-1.1,0-1.6,0-.2,0-.5,0-.7,0h-.6c-.3,0-.5,0-.8,0h-.4c-.7.2-1.3.3-1.9.3-.6,0-1.2,0-1.8,0-.6,0-1.2-.1-1.8-.2-.6-.1-1.2-.2-1.8-.4h0c-.1,0-.3,0-.4-.1-.2,0-.3,0-.4-.1-.1,0-.2-.1-.3-.2l-1.2-.8-1.2-.7c-.4-.3-.8-.5-1.2-.8-.4-.3-.7-.6-1.1-1-.6-.6-1.1-1.4-1.6-2.2-.4-.8-.8-1.7-1.2-2.7-.3-.9-.6-1.8-.9-2.6l-.8-2.6c-.1-.4-.2-.9-.3-1.4,0-.5-.1-1-.2-1.6v-1.6c-.2-.8-.3-1.6-.3-2.5,0-.8,0-1.6-.2-2.4l-.2-2.3v-.4c-.2-.7-.3-1.5-.2-2.4,0-.8.1-1.7.3-2.7.1-.9.3-1.8.4-2.6,0-.8.2-1.6.2-2.4,0-.8,0-1.7,0-2.5v-1.8s0-.9,0-.9v-2.6s0-.7,0-.7c0-.2,0-.5,0-.8,0-.3,0-.5,0-.8v-.4c0-.2-.1-.4-.1-.6v-.9c0-.4,0-.7,0-1.1,0-.2,0-.4.2-.6,0-.2.2-.4.3-.6.2-.4.4-.7.8-1,.3-.3.7-.5,1.2-.6.5-.1.9-.3,1.3-.3.4,0,.8-.1,1.2-.1.4,0,.7,0,1.1-.1h.7c.3-.1.6-.1.9-.2l1.5-.3c.1,0,.3,0,.4,0s.2,0,.3,0c.3,0,.6,0,.8,0,.3,0,.6.1.8.2.3.1.5.3.7.5.2.2.3.5.4.8.1.4.2.8.3,1.2,0,.4.1.8.1,1.2v2.6c-.1,1.3-.2,2.6-.2,3.9h0c0,2.1,0,4.2,0,6.4v3.6c0,2.4,0,4.7,0,7.1,0,1.5.2,3,.3,4.5v.5c.1.8.2,1.7.3,2.5l.3,2.5c0,.4.2.8.3,1.2.2.4.4.7.6,1,.3.3.6.6.9.9.3.3.7.5,1.1.8h0c0,0,0,.2,0,.2h0c.1,0,.3.1.5.2.8.2,1.6.3,2.3.2.8,0,1.5-.2,2.2-.5.7-.3,1.3-.7,1.8-1.2.5-.6.9-1.3,1.2-2.2.1-.4.2-.7.3-1.1,0-.4.2-.8.2-1.2.1-.7.2-1.4.2-2.1v-.4c0-.3,0-.7,0-1s0-.6,0-.9c0-.3,0-.7,0-1.1,0-.4,0-.7.1-1.1,0-.4.1-.7.2-1.1,0-.3,0-.7,0-1v-2.1c0-.5,0-1.1,0-1.8l.2-2.3.2-2.7.2-2.6c0-.6,0-1.2.2-1.8,0-.7.1-1.3.2-2,0-1,0-2.1,0-3.1v-1.5c0-1.4,0-2.9,0-4.4v-1c0-.4,0-.7,0-1.1v-.9c0,0,.2-1.3.2-1.3l.9-.3c.5-.2,1-.3,1.6-.4.7-.1,1.4-.1,2-.2h1c.9-.1,1.8-.3,2.7-.4h.4c.3,0,.6,0,.8,0,.3,0,.5,0,.8,0,.3,0,.6.1.8.3.2.1.5.3.7.5h0c0,0,0,.2,0,.2,0,.2.2.5.2.8,0,.3,0,.5,0,.8v.7c0,0-.1.6-.1.6h0ZM272.4,319.9c.7,0,1.2.1,1.7.5.4.3.7.8.8,1.5,0,.1,0,.3,0,.4v.4s-.2,1.5-.2,1.5l-.2,2.1c0,.7-.1,1.3-.2,2,0,.6,0,1.1-.2,1.5-.2.5-.4.8-.7,1-.3.2-.6.3-1.1.4-.4,0-.9.1-1.5.1h-3.4c0,0-3.4,0-3.4,0-1.1,0-2.2,0-3.3,0-1.2,0-2.3,0-3.5,0h-1c-.7,0-1.4,0-2.1,0h-1.5c-3.5.2-7.9.6-11.3.3-.8,0-1.5-.1-2.2-.2-.4,0-.7-.2-1-.4-.2-.2-.4-.4-.6-.7-.1-.1-.1-.3-.1-.5v-.2c-.1-.5-.2-1.2-.2-1.9,0-.6,0-1.3.1-2.1,0-.8.2-1.5.3-2.2.2-.7.3-1.4.5-2v-.2c0,0,.8-.2.8-.2.4-.1.8-.2,1.2-.3.9,0,1.7-.1,2.5-.1l5.8-.3h1.9c0,0,1.9,0,1.9,0h5.5s.8,0,.8,0h.8c1.3,0,2.7-.1,4.1-.2,1.3,0,2.7,0,4.1,0,.4,0,.8,0,1.2,0l2.4-.2h1.2ZM448.1,324.1c3.1.3,7.1.6,10.1,1.2.4,0,.7.1.9.2.3,0,.5.2.6.3.2.1.3.4.4.6,0,.2.1.5.2.8h0c0,.2,0,.3,0,.3h0c.2.5.4,1,.5,1.4,0,.4.1.9.1,1.3h0c0,.8,0,1.6-.2,2.3h0c0,0,0,.3,0,.3h0c0,.3,0,.5,0,.7,0,.4-.1.8-.4,1-.3.2-.6.4-1.1.4h-.8s-.4,0-.4,0c-.5,0-1.1,0-1.6,0-.5,0-1,0-1.5-.1l-4.2-.5c-.7,0-1.4-.2-2.2-.2l-3.5-.2c-.7,0-1.4,0-2.2,0h-1.6c-2.6-.1-5.2-.2-7.9-.2h-2.8c0,0-.9,0-.9,0-.4,0-.8,0-1.3-.2-.4-.1-.9-.3-1.3-.5-.3-.1-.5-.3-.7-.6-.1-.3-.2-.6,0-.9,0-.2.1-.4.2-.6,0-.2,0-.4,0-.6v-.4c0-.2,0-.3,0-.5v-.3c0-.1,0-.3,0-.5,0-.3.1-.7.1-1,0-.3,0-.5,0-.7,0-.3,0-.6,0-1s0-.6,0-.9v-.5c0-.2,0-.4,0-.6v-.6c0-.2,0-.4,0-.6h0c0-.2,0-.4,0-.5v-.4c.1-.8.1-1.6,0-2.4,0-.8,0-1.6-.1-2.3,0-.8-.1-1.6-.2-2.4,0-.8,0-1.6,0-2.4v-2.4c0,0,.1-2.3.1-2.3,0-3.2,0-6.5,0-9.7,0-.6,0-1.1,0-1.7,0-.9,0-1.7,0-2.5,0-.8,0-1.7,0-2.5,0-.9,0-1.7,0-2.5s0-1.7,0-2.6c0-.8,0-1.7,0-2.6,0-.9-.2-1.8-.3-2.8,0-.6-.1-1.2-.1-1.9,0-.6,0-1.2,0-1.8,0-.9,0-1.8,0-2.8v-.7c0-1,0-1.9,0-2.9,0-1.1,0-2.1,0-3.2v-.4c0-.2,0-.4,0-.5v-.2c0-.2,0-.4,0-.6,0-.2,0-.4,0-.6,0-.2.1-.4.2-.5l.2-.3.2-.3c.3-.6.8-.9,1.5-1,.6,0,1.3,0,2.1.3l1.2.4c1.8.7,3.5,1.3,5.2,1.9,1,.3,2.1.7,3.1,1,1.1.3,2.1.7,3.3,1.1.7.2,1.5.6,2.2.9l1,.4c.7.3,1.4.6,2.2.9l1.3.4,3.1,1.1,1.9.7c.6.2,1.2.5,1.9.8.6.3,1.3.6,1.9.9.5.3,1,.5,1.4.7.4.2.7.4.8.6.2.2.4.6.5,1,0,.4,0,.9,0,1.5v.5s-.1.8-.1.8c0,.3,0,.6-.2.9-.1.4-.2.8-.3,1.4,0,.5-.1,1-.1,1.6s-.3,1.2-.8,1.4c-.5.2-1.1,0-1.9-.2l-1.8-.7-1.7-.7-2.2-.9-2.1-.9c-.6-.3-1.2-.5-1.8-.7-.6-.2-1.2-.4-1.8-.6-.6-.1-1.1-.3-1.7-.5l-1.8-.6c-.5-.2-1-.2-1.4-.2-.4,0-.7.2-1,.5-.4.4-.7.9-1,1.4v.2c-.2.2-.3.5-.4.7,0,.3,0,.6,0,.9,0,.2,0,.4,0,.6l-.2,1c0,.2,0,.4-.1.6,0,.2-.1.5-.2.7,0,.2,0,.5,0,.8v3.3c0,.3,0,.6,0,.9v.6c0,.3.1.6.2.9,0,.3.1.6.2.9.2.6.5,1.1.9,1.5.4.4,1,.8,1.7,1,.8.3,1.6.6,2.4.9l.4.2c.4.2.9.3,1.4.5.5.1,1,.2,1.5.3.6,0,1.2.3,1.9.5h.3c.4.2.8.3,1.2.4h.4c.2.2.5.2.7.3.2,0,.5,0,.7,0s.3,0,.6,0c.2,0,.4.1.7.2.7.2,1.2.5,1.7.9.4.4.8.9,1,1.5.1.4.2.8.3,1.2v.5c.2.3.2.6.2.9,0,.3,0,.6,0,.8h0c0,.5-.1.9-.1,1.2v1.2c0,.2,0,.4,0,.6-.1.5-.4.9-.8,1.1-.4.2-.8.3-1.4.3-.3,0-.7,0-1.2-.2l-.6-.2c-.8-.3-1.6-.6-2.4-.8-.8-.2-1.6-.4-2.4-.5-1.1-.2-2.2-.5-3.4-.8l-1.7-.4c-.9-.2-1.7-.2-2.3,0-.6.3-1,.8-1.3,1.5l-.2.5c0,.2,0,.3,0,.5l-.2,1.1c-.1.8-.1,1.5-.2,2.3v.2c0,.6,0,1.3,0,1.9,0,.6,0,1.2,0,1.8,0,.6,0,1.3.1,1.9,0,.6,0,1.3,0,1.9v.3c0,.2,0,.4,0,.5v.5s0,.5,0,.5c0,.4.1.7.3,1,.2.3.6.6,1.1.9.3.2.7.3,1.1.5.4.1.9.2,1.4.3,1.1,0,2.2.1,3.3.2h1.8v.4h0ZM405.3,260.9c.2-.4.5-.7.8-1,.3-.2.7-.4,1.1-.4.4,0,.7,0,1.1,0,.4,0,.8,0,1.2.2l2.7.4,2.7.5c.3,0,.6.1.9.2.3,0,.6.2.9.3.3.2.6.3.9.5.3.2.5.4.7.7.2.3.4.6.5.9,0,.3.1.7.1,1.1s0,.7,0,1.1h0c0,.3,0,.6,0,.8,0,.2,0,.5-.2.7v.4c0,.1,0,.3,0,.4v1c0,.2.1.4.2.6v.4c0,0,.1.4.1.4v.3s-.3,5.4-.3,5.4c0,.6,0,1.2,0,1.8,0,1.3,0,2.6.2,3.8h0c0,.7,0,1.3,0,2v2.8s0,1.5,0,1.5v.8c0,1.3,0,2.6,0,3.9v2c0,.7,0,1.3,0,2v2.4c0,0-.2,2.4-.2,2.4,0,1,0,2,0,3v1.9s0,2.9,0,2.9c0,1,0,1.9,0,2.9s0,2,.1,2.9c0,1,.2,2,.3,3v.2c.1.2.1.3,0,.5v.2c-.1.6-.2,1.2-.2,1.8,0,.6,0,1.3,0,1.9v1.9c0,0,0,1.9,0,1.9,0,.7,0,1.4,0,2.1,0,.7-.1,1.3-.2,2-.1.7-.4,1.2-.8,1.5-.4.3-1,.5-1.7.4h0c-.8-.1-1.5-.2-2.4-.2h-2.7c-.3.2-.7.2-1,.2h-1.6c0,0-.4-.2-.4-.2l-.8-.2c-.4-.1-.8-.3-1-.6-.3-.3-.4-.6-.5-1,0-.5-.1-1-.2-1.5v-.8c-.1-.4-.1-.8-.1-1.2,0-.4,0-.8.2-1.2h0c0-.2,0-.4,0-.8l.2-2.8c0-.4,0-.9,0-1.3v-1.3s0-.7,0-.7c0-.9,0-1.9,0-2.8v-1.6c-.1-.7-.1-1.3-.2-2v-1.2s-.1-1.2-.1-1.2c0-.4,0-.9,0-1.3,0-.4,0-.8.2-1.2v-.3s0-.3,0-.3c0-.3,0-.6,0-.8h0c0-.4,0-.7-.2-1.1-.1-.3-.3-.7-.5-1-.2-.3-.5-.6-.9-.8-.4-.2-.8-.3-1.3-.4-1-.1-2.1-.2-3.2-.3l-4.6-.3c-1.2,0-2.2.1-2.8.7-.6.5-1,1.4-1,2.7,0,.3,0,.5-.2.8v.4c0,0-.2.5-.2.5v2.2c-.2,1-.2,2-.2,2.9v.4s0,.3,0,.3c0,.2,0,.5,0,.7v5.1c0,1.2,0,2.5,0,3.7v1.4c0,.9,0,1.8,0,2.6v1.6c0,.5-.1,1-.2,1.3-.1.4-.3.7-.5.9-.2.2-.5.3-.9.4-.4,0-.8.1-1.4.2h-.8s-.8,0-.8,0c-.2,0-.5,0-.7,0-.3,0-.5,0-.8.1-.3,0-.7.1-1,.1-.3,0-.7,0-1,0h-.3c-.6,0-1.1-.1-1.6-.2-.5-.1-1-.4-1.4-.7-.4-.3-.7-.8-1-1.3-.1-.3-.2-.6-.3-1,0-.3-.1-.7-.1-1l-.2-1.9c-.1-1.7,0-3.4,0-5.1v-.8c0-1.5,0-3,0-4.5v-2.2c0-.8,0-1.7,0-2.5h0c0-1,0-1.8,0-2.7h0c0-.8,0-1.6,0-2.4,0-.8,0-1.5,0-2.2v-1.4c0-1,0-2,.1-3v-1.8c0,0,.2-1.8.2-1.8,0-.6,0-1.2,0-1.8,0-.6,0-1.2-.2-1.8,0-.2,0-.4,0-.6,0-.2,0-.4,0-.6v-.4c0,0,.1-.5.1-.5,0-1.5,0-3,0-4.6v-2.3s0-2.3,0-2.3c0-.8,0-1.5-.1-2.3v-1.2c-.1-.9-.1-1.8-.1-2.8v-1.2s.1-1.4.1-1.4v-2.1c0,0,0-3.5,0-3.5,0-1,0-1.9,0-2.9,0-.8,0-1.6,0-2.5,0-.8-.1-1.7-.3-2.5,0-.2,0-.4,0-.6v-.5s.2-.1.2-.1c.7-.4,1.3-.6,2-.7.7,0,1.3,0,1.9.2.2,0,.5.2.8.2.3,0,.6.1.9.2.4,0,.9,0,1.4.1h.3c.5,0,1,0,1.4.2h.3c.3,0,.6.1.9.2.3,0,.6.2.9.3,1,.4,1.8.9,2.3,1.6.5.7.7,1.5.6,2.5-.2,1.2-.3,2.5-.4,3.7-.1,1.2-.2,2.4-.2,3.6v.5c0,1.4-.1,2.7,0,4v.6c.1.8.2,1.6.2,2.4,0,.5,0,1,0,1.5v1.5s0,1.9,0,1.9v1.9s0,3.7,0,3.7c0,.4,0,.7.1,1.1,0,.3.2.6.3.9.3.6.6,1,1,1.3.4.3.8.4,1.4.4h1.5c0,0,1.4.2,1.4.2l4.2.4c.3,0,.6,0,.9,0h.4c.5,0,1,0,1.4-.2.5-.1.9-.4,1.3-.7.1-.1.3-.2.4-.4,0-.1.2-.3.2-.5.1-.3.2-.7.2-1l.3-1.3.2-1.1v-1.2c.2-.4.2-.8.2-1.2v-.2c0-1.3,0-2.5,0-3.7,0-.9,0-1.8,0-2.8v-2.8c0-1-.1-2-.2-3,0-1.6-.2-3.4-.2-5l-.4-2.2v-.6c-.1-.2-.1-.4,0-.6h0c0-.4,0-.7,0-1h0c0-.1,0-.2,0-.2h0ZM371,312.6c.6.6,1,1.3,1.1,2.1,0,.7,0,1.5-.6,2.2-.5.8-1.1,1.6-1.6,2.4l-.6.9c-.3.5-.6.9-1,1.3-.3.4-.7.8-1.1,1.1l-.6.6c-.6.5-1.1,1.1-1.7,1.6l-2.1,1.7c-.4.3-.8.6-1.1.9-.4.3-.8.5-1.2.8-.3.2-.6.4-.9.5-.3.2-.6.3-1,.4l-.4.2c-.5.2-1,.4-1.5.6-1.5.5-3.2.7-4.8.8-1.7.1-3.4,0-5.2-.1-.2,0-.4,0-.5,0-.2,0-.3,0-.5-.2-.5-.3-1.1-.5-1.7-.7l-1.7-.7c-.6-.2-1.2-.5-1.7-.8-.6-.3-1.1-.7-1.7-1.1-.3-.2-.6-.5-.8-.7l-.4-.4c-.2-.2-.3-.3-.4-.5,0,0,0,0,0,0h-.2c-.5-.4-.9-.8-1.3-1.1-.4-.4-.7-.8-1-1.3l-.6-1c-.3-.5-.6-1-.9-1.5-.3-.4-.6-.9-.9-1.4-.3-.5-.5-1-.8-1.4-.2-.5-.5-1-.7-1.5-.2-.5-.4-1-.5-1.6v-.3c-.2-.5-.3-1-.5-1.3-.4-.6-.7-1.3-.9-2-.2-.7-.4-1.4-.5-2.1-.2-1.1-.3-2.3-.4-3.4v-.9c-.1-.4-.2-1-.3-1.5v-.9c-.2-.4-.2-.9-.3-1.3,0-.4,0-.9,0-1.3,0-.9.2-1.7.3-2.5v-.5c0-.1,0-.3,0-.4v-.3c0,0,0-.4,0-.4,0-.8,0-1.6,0-2.4,0-.8.1-1.6.2-2.4,0-.8.2-1.6.3-2.4l.7-4.8.7-4.1c.1-.7.3-1.4.4-2.1.2-.7.3-1.4.5-2.1.4-1.5.9-2.9,1.5-4.2.6-1.4,1.3-2.7,2.2-3.9l.9-1.4c.4-.7.9-1.3,1.3-2,.2-.3.4-.6.6-.8.2-.3.5-.5.7-.7l.6-.6.7-.7c.8-.9,1.7-1.7,2.6-2.5.9-.8,2-1.5,3-2.2,1.1-.7,2.3-1.3,3.5-1.7,1.2-.5,2.4-.8,3.7-1,.2,0,.4,0,.6,0,.2,0,.4,0,.7,0h.5c.2,0,.5,0,.7,0,.5,0,.9.2,1.1.2h.1c.9,0,1.8.2,2.6.5.8.2,1.6.5,2.4.9.7.4,1.5.8,2.2,1.3.7.5,1.4,1,2.2,1.6.5.4,1,.9,1.5,1.4.5.5.9,1,1.3,1.4l1.2,1.5,1.2,1.6.3.5c.1.2.2.3.3.5v.2c.2.3.3.5.5.9,0,.2.1.4.1.6,0,.2,0,.5,0,.6l-.4.8c0,.1-.2.3-.3.4l-.3.4c-.7.9-1.6,1.7-2.5,2.4-.9.7-1.9,1.4-2.9,2.1-.6.4-1.2.6-1.8.5-.6,0-1.1-.4-1.7-1l-.3-.3-.3-.3c-.2-.1-.3-.3-.4-.4-.1-.2-.2-.3-.3-.5-.1-.3-.3-.5-.5-.8-.2-.2-.3-.5-.5-.7l-.5-.4c-.3-.3-.6-.6-.9-.9-.3-.4-.7-.7-1.1-.9-.4-.2-.8-.3-1.3-.3-.8,0-1.4,0-2.1.1-.6.1-1.2.3-1.7.7-.7.5-1.4,1-2,1.5-.6.6-1.2,1.1-1.8,1.7-.5.6-1,1.3-1.5,2-.5.7-.9,1.5-1.2,2.3h0c-.1.3-.3.6-.3.8v.2c-.1.3-.2.6-.4.9-.3.4-.5.9-.7,1.4-.2.5-.3,1-.4,1.5h0c-.1.3-.2.7-.3,1-.2.7-.5,1.3-.6,2-.2.7-.4,1.3-.5,2-.1.7-.3,1.3-.4,2-.1.7-.2,1.3-.3,2.1v.6c0,0-.1.7-.1.7v7.4c0,0,.3,2.5.3,2.5v1.1c0,.4.2.8.2,1.2,0,.3,0,.6.1.9,0,.5,0,1,.1,1.6,0,.4,0,.8.1,1.2,0,.4.2.8.3,1.2l.2.8c0,.3.2.6.3.9.1.3.3.6.4.9.2.4.4.9.6,1.3.2.5.4,1,.7,1.4.5.9,1.1,1.7,1.8,2.4.7.7,1.5,1.2,2.4,1.6.9.4,1.8.7,2.7.8.9.1,1.8.1,2.8,0,.5,0,1-.2,1.4-.4.5-.2.9-.5,1.2-.8l1.3-1.2,1.2-1.2c.4-.4.7-.8,1-1.2.3-.5.6-1,.8-1.5.2-.5.5-.9.8-1.4l.2-.3c.4-.6.9-1,1.5-1.2.6-.2,1.2-.2,1.9.1l1.4.5c.2.1.5.2.7.4.2.2.4.3.6.5l.5.5.7.6c.3.2.6.5.9.7l.8.8h0ZM531.4,326.1v-2c0-1,0-2,0-2.9l-.2-2.8c0-.2,0-.4,0-.6v-.3c.1-.2.1-.5.1-.7,0-.2,0-.4-.1-.6l-.2-.7c0-.2-.2-.4-.3-.6-.4-.6-.8-1.2-1.3-1.8l-.4-.5c0,0-.2-.2-.2-.3h0c0-.2-.1-.3-.2-.4h-.1c-.8-.7-1.5-1.3-2.1-1.9l-.6-.7c-.4-.5-.8-.9-1.2-1.3-.7-.8-1.5-1.6-2.2-2.3l-4.1-4.3c-.7-.7-1.3-1.4-1.9-2.1l-1.1-1.3c-.4-.4-.8-.8-1-1.3l-.5-.8c-.2-.3-.4-.5-.6-.8l-3-3.5c-.2-.2-.4-.5-.5-.7,0-.3-.1-.5-.1-.8,0-.3.2-.6.4-.8.2-.2.5-.4.8-.5l1.4-.5c.4-.1.8-.3,1.2-.4h.7c.6-.2,1.1-.4,1.7-.5.4,0,.7-.2,1.1-.3.4-.1.8-.3,1.2-.4.4-.2.9-.2,1.3-.4.4-.1.6-.2.8-.3.3-.1.6-.1,1,0,.3.1.6.4.8.7l1.1,1.2c.4.4.7.8,1.1,1.2.6.6,1.2,1.2,1.8,1.8l1.1,1.1.5.6.5.6.5.6c.3.4.6.8.9,1.2.3.4.6.7.9,1.1l1.1,1.1,1.8,1.7c.7.7,1.5,1.4,2.3,2.1l1,.8.4.2h0c0,.1.1.1.2,0,.2,0,.5-.1.8-.3.1,0,.2-.2.3-.2l.3-.4c.1-.2.2-.3.3-.5,1.3-2.5,2.7-5.2,4.1-7.9l.3-.5,3.2-6.6,3.2-6.7,1-2.4c.7-1.5,1.3-3,1.9-4.5.3-.7.6-1.4.9-2,.3-.7.7-1.3,1.1-2,.2-.3.4-.6.6-.8.2-.3.5-.5.8-.7,1.3-.9,2.5-1.9,3.8-2.9h0c.7-.5,1.3-1,2-1.5.7-.5,1.3-.9,2-1.3l1-.5c.3-.2.6-.3.9-.4h0c.3-.1.6-.2.9-.1.3,0,.5.2.7.5.1.3.2.5,0,.9,0,.3-.2.6-.4.9-.3.5-.6,1-.8,1.6-.2.5-.5,1-.6,1.4-.2.5-.4,1-.6,1.5-.2.5-.5,1-.7,1.5l-.6,1.3-.8,1.8c-.3.7-.6,1.3-.9,1.9l-.7,1.5-.7,1.5-.6,1.5-.7,1.9c-.3.7-.5,1.4-.8,2.1l-.4.8c-.3.5-.5,1.1-.7,1.6l-3.1,7c-1,2.3-2,4.6-3.1,6.8l-.3.6c-.8,1.6-1.5,3.3-2.4,5-.9,1.8-1.8,3.6-2.6,5.3-.3.6-.5,1.2-.8,1.8-.2.6-.5,1.2-.7,1.7-.2.6-.4,1.1-.6,1.6-.2.5-.3,1-.4,1.5,0,.5-.1,1-.1,1.5v.3c-.2,3.9-.3,7.7-.3,11.4v3c0,.7,0,1.5,0,2.3v.8c0,.5-.2.9-.6,1.2-.3.3-.7.5-1.3.6-.9.2-1.7.3-2.5.5l-2.1.4c-.2,0-.5.1-.7.2l-.5.2c-.4,0-.7.2-1.1.2h-.3c-.3.1-.5.1-.7.2-.2,0-.4,0-.6,0-.2,0-.4-.2-.5-.4,0-.1-.1-.3-.2-.6,0-.4-.2-.8-.3-1.3,0-.5-.1-.9-.1-1.3,0-1.4,0-2.8,0-4.2v-2.2s0-1.6,0-1.6h-.1v-.5h0ZM507.1,339.3c-.4.2-.9.4-1.3.5-.4.1-.8.2-1.2.2h-1.6c0,0-1.6,0-1.6,0-1.3,0-2.6,0-3.9,0h-.6c-.3-.1-.6-.2-.8-.3-.2-.1-.4-.3-.6-.5h-.1c-.2-.4-.4-.6-.5-.9-.2-.4-.4-.8-.6-1.2-.2-.4-.5-.8-.8-1.1l-1-1.2-1-1.2c-.1-.1-.2-.2-.3-.4l-.8-1.3-3-4.8c-.3-.5-.6-1-1-1.5l-1.5-2.2c-.4-.6-.7-1.1-1-1.7l-.3-.6c0-.2-.2-.4-.4-.5-.1-.2-.3-.3-.5-.4-.2-.1-.4-.3-.7-.4-.3-.1-.6-.3-.8-.4h0c0,0,0,0-.1,0,0,0-.2,0-.3,0-.2,0-.4.1-.5.2,0,0-.1.2-.2.3,0,.8-.2,1.5-.4,2.3l-.2.9c0,.5-.1,1.1-.2,1.6,0,.5,0,1,0,1.6,0,.5,0,1.1,0,1.6v1.5c0,.5,0,1,0,1.5,0,.5,0,1,.2,1.5,0,.5.1.9.1,1.4,0,.4,0,.9,0,1.3,0,.4,0,.9-.1,1.3,0,.4-.2.9-.3,1.3-.1.3-.3.6-.6.7-.2.2-.5.2-.9.2-.5,0-.8,0-1.3,0l-1.6-.2c-1.5-.2-3-.4-4.5-.6-.5,0-1-.2-1.5-.5-.5-.2-.9-.6-1.2-1h0c-.2-.4-.3-.8-.4-1.1,0-.3-.1-.7-.1-1s0-.8,0-1.3v-.6s0-.7,0-.7c0-.4,0-.7,0-1v-.5c.2-.4.2-.7.2-1.1,0-.5,0-.9,0-1.4,0-.5,0-.9,0-1.4l.2-3.1c0-.5,0-.9,0-1.4,0-.6,0-1.2,0-1.8,0-.2,0-.3,0-.4,0-.1,0-.3,0-.4v-.3c0-.2,0-.4,0-.5,0-.6-.1-1.1-.1-1.6,0-.5,0-1.1,0-1.6v-1.5c.1-.5.2-1,.2-1.5,0-.4,0-.8,0-1.2v-1.2c0-2.3,0-4.6,0-6.9,0-1.2,0-2.4-.1-3.6v-.8c-.1-.8-.1-1.6-.1-2.4s0-1.6,0-2.3c0-1,.2-2.1.3-3.3,0-.4,0-.9.1-1.3,0-.2,0-.4,0-.5-.1-.5-.2-1.1-.2-1.5,0-.5,0-1,0-1.4,0-.4.1-.8.1-1.2s0-.9-.1-1.3c0-.2,0-.5,0-.7,0-.2,0-.4,0-.6h0c0-.4,0-.7.2-1.2v-.2c.1-.3.3-.5.6-.6.2,0,.5,0,.8,0,.2,0,.4,0,.6.2.2,0,.4.2.6.2.1,0,.3.1.4.2l.3.2c.6.3,1.2.7,1.8.9.6.3,1.2.5,1.7.8l1.7.7,1.9.7c1,.4,2,.8,2.9,1.1l1.6.7,1.5.7,1.9.9c.9.4,1.8.9,2.8,1.3,1,.5,2.1.9,3.2,1.3l1.3.5c1.4.5,2.6,1.1,3.6,1.7,1.1.6,2,1.3,2.8,2.1.5.5.9,1,1.2,1.6.3.5.6,1.1.7,1.7h0c0,.6.2,1,.3,1.4v.4c.2.4.4.7.5,1.1,0,.3.1.6.2.9,0,.3,0,.6,0,.9,0,.4,0,.8,0,1.2v.6c0,.7,0,1.4,0,2.1v1c0,.9-.1,1.9-.3,2.8-.2.9-.6,1.7-1,2.6-.3.5-.7,1.1-1.2,1.6-.5.5-1.2,1-1.9,1.5l-1.4.9c-.4.3-.8.6-1.2.8-.5.4-.8.7-1,1.1-.2.4-.2.8-.1,1.2v.6c0,0,.1.5.1.5,0,.1,0,.3,0,.4,0,.1,0,.3.2.4l.2.4.3.5c0,.2.2.3.4.5l.5.5c.3.3.6.7.9,1,.3.3.5.7.7,1l1.3,2,1.9,2.7,1.9,2.7c.8,1.1,1.6,2.1,2.4,3.2.2.2.3.5.5.7l.5.7c.2.3.3.5.3.6h0c0,.2,0,.3,0,.5v.8s-.2.1-.2.1h0ZM196.3,286.2v3.2c0,.2,0,.5,0,.7,0,.5.2,1,.5,1.3.2.4.6.7,1,.9.4.3.9.4,1.4.5.5,0,.9,0,1.4-.1,0,0,.2-.1.4-.1.1,0,.3,0,.6,0,.5,0,.9-.1,1.4-.3.4-.1.8-.3,1.1-.5.3-.2.7-.5,1-.8.3-.3.6-.6.9-1,.8-1,1.4-2,1.9-3,.4-1,.7-2.1.8-3.2,0-.9,0-1.6-.1-2.3-.2-.7-.5-1.3-.9-1.8-.2-.3-.4-.5-.7-.8-.2-.2-.5-.5-.8-.7-.2-.2-.5-.4-.8-.5-.3-.1-.6-.2-1-.2h-1.2c-.7-.2-1.4-.3-2.1-.3-.7,0-1.4.1-2,.3h-.6c-.4.2-.7.3-.9.6-.2.2-.4.5-.4.9v.4c0,0-.2.4-.2.4,0,.1,0,.3,0,.5v.3c-.2,1-.3,1.9-.3,2.9v2.5c-.1,0,0,0,0,0v.5h0ZM479.8,303.2c0,.2,0,.4,0,.6,0,.2,0,.5,0,.7,0,.4,0,.8.2,1.2v.2c.1.4.3.8.5,1.1.2.3.5.6.9.9.4.3.9.5,1.4.7.5.2,1,.3,1.6.3.6,0,1.2,0,1.7-.2.6-.1,1.1-.4,1.6-.6l.8-.5c.3-.2.5-.3.7-.5.2-.2.4-.3.5-.5.1-.2.2-.4.3-.6.1-.5.2-.9.3-1.3l.2-1c0-.3,0-.7,0-1,0-.4-.3-.8-.5-1.2,0-.1,0-.3-.1-.5v-.3c0-.4-.2-.7-.5-1.1-.3-.4-.6-.8-1.1-1.2-.4-.3-.7-.6-1.1-.9-.4-.3-.8-.6-1.2-.8-.4-.3-.8-.5-1.3-.7-.5-.2-1-.4-1.4-.6-.7-.3-1.3-.5-1.8-.4-.3,0-.6.1-.7.4-.1.3-.2.6-.3.9v.6c-.1,0-.2.6-.2.6,0,.5-.1,1-.2,1.4,0,.5,0,1,0,1.5,0,.6,0,1.1-.1,1.7,0,.5-.1,1-.1,1.5h0Z"/>
  <path class="st3" d="M388.7,366.6c11.3,6.5,18.9,17.1,22.1,28.8,3.1,11.7,1.8,24.6-4.7,35.9-6.5,11.3-17.1,18.9-28.8,22.1-11.7,3.1-24.6,1.8-35.9-4.7-11.3-6.5-18.9-17.1-22.1-28.8-3.1-11.7-1.8-24.6,4.7-35.9,6.5-11.3,17.1-18.9,28.8-22.1,11.7-3.1,24.6-1.8,35.9,4.7h0Z"/>
  <path class="st4" d="M388.7,366.6c11.3,6.5,18.9,17.1,22.1,28.8,3.1,11.7,1.8,24.6-4.7,35.9-6.5,11.3-17.1,18.9-28.8,22.1-11.7,3.1-24.6,1.8-35.9-4.7-11.3-6.5-18.9-17.1-22.1-28.8-3.1-11.7-1.8-24.6,4.7-35.9,6.5-11.3,17.1-18.9,28.8-22.1,11.7-3.1,24.6-1.8,35.9,4.7h0ZM406.9,396.5c-2.9-10.7-9.8-20.3-20.2-26.3-10.4-6-22.1-7.2-32.8-4.3-10.7,2.9-20.3,9.8-26.3,20.2-6,10.4-7.2,22.1-4.3,32.8,2.9,10.7,9.8,20.3,20.2,26.3,10.4,6,22.1,7.2,32.8,4.3,10.7-2.9,20.3-9.8,26.3-20.2,6-10.4,7.2-22.1,4.3-32.8h0Z"/>
  <polygon class="st1" points="365.1 407.6 362.3 420.3 373.6 426.8 360.7 428.1 358 440.8 352.8 429 339.9 430.3 349.5 421.7 344.2 409.8 355.4 416.3 365.1 407.6 365.1 407.6"/>
  <polygon class="st1" points="382.4 389.7 389.5 400.6 402 397.2 393.8 407.2 400.9 418.1 388.8 413.4 380.6 423.5 381.3 410.6 369.2 405.9 381.8 402.6 382.4 389.7 382.4 389.7"/>
  <polygon class="st1" points="372 383.6 359 383 355.7 370.4 351 382.6 338.1 381.8 348.2 390 343.5 402.1 354.4 395 364.5 403.2 361.1 390.7 372 383.6 372 383.6"/>
</svg>