<?xml version="1.0" encoding="UTF-8"?>
<svg id="Layer_1" xmlns="http://www.w3.org/2000/svg" version="1.1" viewBox="0 0 216 216">
  <!-- Generator: Adobe Illustrator 30.2.1, SVG Export Plug-In . SVG Version: 2.1.1 Build 1)  -->
  <path d="M179.5,37.3c-7.4-1.5-14.4-.6-20.1,4.9-2.2,2.2-4,4.9-6.3,7.6-2.3-2.9-4.5-5.8-6.8-8.7.3-.3.3-.4.4-.4.3,0,.6-.2,1-.3,6.6-1.8,12.8-4.5,17.9-9.2,5.5-5,8.4-11.1,6.8-18.8-.9-4-3.1-7.3-6.6-9.6-.4-.3-1.2-.5-1.5-.3s-.4,1-.4,1.5.3,1.4.4,2.2c1.6,7.1-1,13-7.3,16.6-5.6,3.2-11.7,3.6-18,3.3-.3,0-.7-.4-.8-.6-.9-2.6-2.8-4.1-5.3-4.9-7.8-2.7-15.7-2.7-23.7-.7-4.3,1.1-8.2,2.9-10.7,6.7-1,1.5-2.1,2.3-3.9,2.1h-1c-3.6,0-7.1-.4-10.5-1.9-6.7-2.9-9.4-8.8-7.6-16.6,0-.6,0-1.4-.2-2-.7.2-1.5.2-1.9.6-3.6,2.9-5.6,6.6-5.7,11.2-.2,6.8,3.2,11.8,8.4,15.5,3.1,2.2,6.7,3.6,9.9,5.4-1.3,1.6-2.8,3.6-4.3,5.5-4.4-5.7-10.5-8.1-17.4-7-5.8,1-6.5,1.8-5.2,7.5,1.7,7.3,5.6,12.8,13.3,14.6,1.2.3,2.4.4,4.1.6-1.6,1.7-2.9,3.1-4.3,4.5-3.7,3.5-8.2,5.7-12.7,7.8-4.2,1.9-6.2,6.7-4.4,10.8.9,2,1,3.8.8,5.9,0,1,0,2.1,0,3.1.3,2,1,3.9,2.7,5.4,2.1-2.7,4.9-4.1,8.2-4.1s6.7.3,10,.9c2.7.5,5.3,1.5,8,2.2,0,0,.3-.2.4-.4-1.3-2-2.4-4-3.9-5.8s-3.4-3.3-5.2-5c.8-.3,1.6-.5,2.3-.8.7-.3,1.4-.8,2-1.3,1.3-1,1.9-2.3,1.3-4-.6-1.6-2-2.6-3.8-2.5-2.8,0-5.5,2.3-6.3,5.4-.2.6-.3,1.2-.4,1.5h-10.8c-.2-1-.4-2.3-.8-3.5-1.2-3.6-1.3-3.6,2.4-5.1.2,0,.4-.2.6-.3,6.4-2.4,12-5.9,16.5-11.1,3.3-3.9,6.4-8.2,6.3-13.4,0-4.7,1.6-7.8,5.4-10.2.5-.3,1-.7,1.5-1.1,2.9-2.2,5.9-4.4,8.8-6.6.9,3.8,1.8,4.4,5.5,3.5,3.6-.8,7.2-1.7,10.8-2.4,3.2-.7,6.4-1.2,9.5-1.8,0,4,1,7.8-.4,11.5-5.3-2.8-10.5-2.4-15.4.8-2.2,1.4-4,3.3-5.9,5.2-5.8,5.8-11.4,11.8-17.2,17.5-2.6,2.5-5.6,4.5-8.7,6.9h1.3c8.3-.3,14.9,6.2,16,13.7,1.1,7.4-3,12.5-10.5,12.6-2.3,0-4.7-.5-7-1-4.3-1-8.6-2.4-13.1-1.4-1.1.2-2.1,1.1-3.2,1.6.6,1.1,1.1,2.4,2,3.1,5.3,4.2,11.5,5.3,18,3.9,2.6-.6,4.7-.5,7,.5.5.2,1,.3,1.5.5,6.6,2.3,13.1,4.9,18.8,9,8,5.7,13.2,13.6,16.6,22.6,3,7.9,5,16.1,4.5,24.6-.1,2.5-1,4.8-3,6.5-1.2,1.1-2.5,1.2-3.8,0-.9-.9-1.8-1.9-2.6-2.9-7.6-10.3-12-22.1-15.3-34.3-1-3.7-2-7.5-3.5-11-1.6-3.6-4-4.4-7.5-2.7-14.4,6.6-28.6,13.8-40.9,24-13.4,11.2-22.7,24.9-25,42.6-.5,3.7-.5,7.5-.7,11.5.6-.2.8-.3.9-.4,4.9-4,10.2-7.2,15.9-9.8,13-5.9,26.8-8.4,40.9-9.5,10.7-.9,21.4-1.3,32.2-2.1,8.6-.6,17-2.3,24.9-6,15.2-7.1,23.4-18.9,24-35.8.4-10.8-1.4-21.3-4.3-31.6-3-10.5-6.7-20.9-10.1-31.2-1.2-3.5-2.6-6.9-4-10.6,4.7,1.8,9.1,2.5,13.8,1.7,11.9-2,18.6-12.3,19.3-22.4.2-2.2-.6-3.3-2.7-3.7l-.3-.3ZM133.3,107.6c-10,5.6-20.2,5.9-30.1-.5-.5-.3-.9-.7-1.5-1.2,3.1.4,5.8.9,8.6,1.1,9.2.6,17.8-.8,25.1-7,1.7-1.4,3.2-3.2,4.6-5,1.3-1.8,2.2-3.8,3.4-5.8.5,8.4-3.1,14.5-10,18.3h-.1Z" fill="#c8a96e" fill-rule="evenodd"/>
  <path d="M161.1,190.6c-6.5,6.4-14.6,9.9-23.4,12-8,1.9-16.1,2.5-24.2,2.1-10-.4-20-1.2-30-1.5-18.8-.6-37,2.7-54.4,9.9-.5.2-.9.3-1.4.5,3.1-4.7,7.5-7.9,12.1-10.6,10.3-6.1,21.4-9.5,33.1-11.6,12.3-2.2,24.7-2.5,37.2-3.1,11.1-.6,22.2-1.5,32.7-5.7,17.2-6.8,26.3-19.7,28.4-37.9,0-.2,0-.3.5-.5.6,2.2,1.4,4.5,1.7,6.7,2.4,15.3-1.2,28.8-12.5,39.7h.2Z" fill="#c8a96e" fill-rule="evenodd"/>
</svg>