<?xml version="1.0" encoding="UTF-8"?>
<svg id="Layer_1" xmlns="http://www.w3.org/2000/svg" version="1.1" viewBox="0 0 216 216">
  <!-- Generator: Adobe Illustrator 30.2.1, SVG Export Plug-In . SVG Version: 2.1.1 Build 1)  -->
  <g display="none">
    <path d="M179.5,37.3c-7.4-1.5-14.4-.6-20.1,4.9-2.2,2.2-4,4.9-6.3,7.6-2.3-2.9-4.5-5.8-6.8-8.7.3-.3.3-.4.4-.4.3-.1.6-.2,1-.3,6.6-1.8,12.8-4.5,17.9-9.2,5.5-5,8.4-11.1,6.8-18.8-.9-4-3.1-7.3-6.6-9.6-.4-.3-1.2-.5-1.5-.3-.3.2-.4,1-.4,1.5,0,.7.3,1.4.4,2.2,1.6,7.1-1,13-7.3,16.6-5.6,3.2-11.7,3.6-18,3.3-.3,0-.7-.4-.8-.6-.9-2.6-2.8-4.1-5.3-4.9-7.8-2.7-15.7-2.7-23.7-.7-4.3,1.1-8.2,2.9-10.7,6.7-1,1.5-2.1,2.3-3.9,2.1-.3,0-.7,0-1,0-3.6,0-7.1-.4-10.5-1.9-6.7-2.9-9.4-8.8-7.6-16.6.1-.6-.1-1.4-.2-2-.7.2-1.5.2-1.9.6-3.6,2.9-5.6,6.6-5.7,11.2-.2,6.8,3.2,11.8,8.4,15.5,3.1,2.2,6.7,3.6,9.9,5.4-1.3,1.6-2.8,3.6-4.3,5.5-4.4-5.7-10.5-8.1-17.4-7-5.8,1-6.5,1.8-5.2,7.5,1.7,7.3,5.6,12.8,13.3,14.6,1.2.3,2.4.4,4.1.6-1.6,1.7-2.9,3.1-4.3,4.5-3.7,3.5-8.2,5.7-12.7,7.8-4.2,1.9-6.2,6.7-4.4,10.8.9,2,1,3.8.8,5.9-.1,1,0,2.1.1,3.1.3,2,1,3.9,2.7,5.4,2.1-2.7,4.9-4.1,8.2-4.1,3.3,0,6.7.3,10,.9,2.7.5,5.3,1.5,8,2.2.1-.1.3-.2.4-.4-1.3-2-2.4-4-3.9-5.8-1.5-1.8-3.4-3.3-5.2-5,.8-.3,1.6-.5,2.3-.8.7-.3,1.4-.8,2-1.3,1.3-1,1.9-2.3,1.3-4-.6-1.6-2-2.6-3.8-2.5-2.8,0-5.5,2.3-6.3,5.4-.2.6-.3,1.2-.4,1.5h-10.8c-.2-1-.4-2.3-.8-3.5-1.2-3.6-1.3-3.6,2.4-5.1.2,0,.4-.2.6-.3,6.4-2.4,12-5.9,16.5-11.1,3.3-3.9,6.4-8.2,6.3-13.4,0-4.7,1.6-7.8,5.4-10.2.5-.3,1-.7,1.5-1.1,2.9-2.2,5.9-4.4,8.8-6.6.9,3.8,1.8,4.4,5.5,3.5,3.6-.8,7.2-1.7,10.8-2.4,3.2-.7,6.4-1.2,9.5-1.8,0,4,1,7.8-.4,11.5-5.3-2.8-10.5-2.4-15.4.8-2.2,1.4-4,3.3-5.9,5.2-5.8,5.8-11.4,11.8-17.2,17.5-2.6,2.5-5.6,4.5-8.7,6.9.6,0,1,0,1.3,0,8.3-.3,14.9,6.2,16,13.7,1.1,7.4-3,12.5-10.5,12.6-2.3,0-4.7-.5-7-1-4.3-1-8.6-2.4-13.1-1.4-1.1.2-2.1,1.1-3.2,1.6.6,1.1,1.1,2.4,2,3.1,5.3,4.2,11.5,5.3,18,3.9,2.6-.6,4.7-.5,7,.5.5.2,1,.3,1.5.5,6.6,2.3,13.1,4.9,18.8,9,8,5.7,13.2,13.6,16.6,22.6,3,7.9,5,16.1,4.5,24.6-.1,2.5-1,4.8-3,6.5-1.2,1.1-2.5,1.2-3.8,0-.9-.9-1.8-1.9-2.6-2.9-7.6-10.3-12-22.1-15.3-34.3-1-3.7-2-7.5-3.5-11-1.6-3.6-4-4.4-7.5-2.7-14.4,6.6-28.6,13.8-40.9,24-13.4,11.2-22.7,24.9-25,42.6-.5,3.7-.5,7.5-.7,11.5.6-.2.8-.3.9-.4,4.9-4,10.2-7.2,15.9-9.8,13-5.9,26.8-8.4,40.9-9.5,10.7-.9,21.4-1.3,32.2-2.1,8.6-.6,17-2.3,24.9-6,15.2-7.1,23.4-18.9,24-35.8.4-10.8-1.4-21.3-4.3-31.6-3-10.5-6.7-20.9-10.1-31.2-1.2-3.5-2.6-6.9-4-10.6,4.7,1.8,9.1,2.5,13.8,1.7,11.9-2,18.6-12.3,19.3-22.4.2-2.2-.6-3.3-2.7-3.7ZM133.3,107.6c-10,5.6-20.2,5.9-30.1-.5-.5-.3-.9-.7-1.5-1.2,3.1.4,5.8.9,8.6,1.1,9.2.6,17.8-.8,25.1-7,1.7-1.4,3.2-3.2,4.6-5,1.3-1.8,2.2-3.8,3.4-5.8.5,8.4-3.1,14.5-10,18.3Z" fill="#c8a96e" fill-rule="evenodd"/>
  </g>
  <path d="M161.1,190.6c-6.5,6.4-14.6,9.9-23.4,12-8,1.9-16.1,2.5-24.2,2.1-10-.4-20-1.2-30-1.5-18.8-.6-37,2.7-54.4,9.9-.5.2-.9.3-1.4.5,3.1-4.7,7.5-7.9,12.1-10.6,10.3-6.1,21.4-9.5,33.1-11.6,12.3-2.2,24.7-2.5,37.2-3.1,11.1-.6,22.2-1.5,32.7-5.7,17.2-6.8,26.3-19.7,28.4-37.9,0-.2,0-.3.5-.5.6,2.2,1.4,4.5,1.7,6.7,2.4,15.3-1.2,28.8-12.5,39.7Z" display="none" fill="#1a1a1a" fill-rule="evenodd"/>
  <path d="M112.1,34s40.6.8,64.9,10.1c24.3,9.3,29.8,14.2,21.8,15.4-8.1,1.2-17.6,7.9-17.6,7.9,0,0,7.9-.7,11.1-1.8,3.2-1.2,5.8-2.6,5.8-2.6,0,0,3.5,2.6-1.5,5.5-5.1,2.8-28,15.8-35.4,15.4-7.4-.5-38.3-19.8-21.1-41.6,0,0-17,12.4-2.9,27,0,0-48.5-16.4-41.2-5.6,7.3,10.9,18.8,18.5,26.3,16.2,7.6-2.3,17.9-6.2,17.9-6.2,0,0,5.3,8.2,17.2,11.9-3.7,5.3-8.9,7.9-14.8,9.2,0,0-23.3,27.8-26.5,22.5-3.2-5.3,4.9-17.9,4.9-17.9l16.2-3.3c-14.4,1.3-48.1,5.3-59.5,11.8,0,0,1.7,10.8-2,15.5-3.7,4.7-6.3,6.7-6.4,3.8-.2-2.9-.2-5.8-2-8.5,0,0,4.9-7.3,6.7-8.9-14.6,9.1-32.6,28.7-20.7,47.3,0,0,7,7.2,3.7,18.9,0,0,6.9-8.5-1.5-18.3,0,0,26.3-3.5,27.3,2,1.1,5.6-10.2,10.2-8.6,17.7,1.5,7.6,18.5,27.9,6.6,25.3-11.9-2.6-37.6-36.2-45.7-55.1-8.1-18.8-6.7-30.7-6.7-30.7,0,0-1.3,16.6,3,24.3,0,0-5.4.1-7.1-3.6-1.7-3.7-5.4-8.4-6-9.3-.5-.8.7-4.6-3.4-7.4-4.1-2.8,6.6-9.6,14-10.7,6-45,34.8-75,76.6-74.4,0,0-10.8-2.1-32.3,3.9,0,0,6.4-11.5,10.6-12,4.3-.4,7.3-2.5,9.3-4.6,2-2.1-.5-14.9,5.9-9,6.3,5.9,10.9,13.8,12.9,19.6l.4.2ZM71.2,100.8s-4.6,9.2-14,10.9c-3.3-6.7,9.7-9.8,14-10.9h0ZM181.7,50c-1.5-.8-3.3-.2-4.1,1.2-.8,1.5-.2,3.3,1.2,4.1,1.5.8,3.3.2,4.1-1.2.8-1.5.2-3.3-1.2-4.1h0Z" display="none" fill="#c8a96e" fill-rule="evenodd"/>
  <g>
    <path d="M192.5,89.1c-.6,0-1.1.4-1.2.9-.3,1.7-.8,3.5-.8,5.2,0,28.7,0,57.4,0,86.1,0,1.7,0,3.4-.1,5.1-.4,4.4-3,6.7-7.4,6.8-4.1,0-6.4-2.6-6.4-7.4,0-16.8,0-33.6,0-50.4,0-1.2,0-2.5,0-3.8,0-1.4-1.1-2.6-2.5-2.7,0,0,0,0,0,0-1.5,0-2.7,1.1-2.8,2.5,0,.7,0,1.4,0,2-.1,17-.2,34-.4,50.9,0,6-2.3,8.7-6.8,8.8-4.2,0-7-3.1-7-8.8,0-27.8,0-55.7,0-83.5,0-2.6,0-5.2-.6-7.9,0-.2-.3-.2-.4,0-1.6,5.6-3.1,11.3-4.7,16.9-.9,3.1-1.3,6.6-3,9.1-1.5,2.1-4.7,4.3-7.1,4.2-3.6,0-5.1-3.7-4.9-7.2.2-2.5,1-5,1.6-7.4,2.4-9.4,4.7-18.8,7.1-28.1,2.9-11.3,7.1-14.6,18.6-14.8,7.8-.1,15.6-.2,23.4,0,10.6.2,16.9,6,17.4,16.6.5,11,.3,22.1.3,33.1,0,3.4-1.2,6.3-5.1,6.3-4,0-5.6-2.7-5.6-6.4,0-7,0-13.9-.1-20.9,0-1.4-.3-2.8-.5-4.2,0-.5-.5-.9-1-1h0Z" fill="#c8a96e"/>
    <path d="M53.1,97.2c-.4-.8-1.7-.7-1.9.2-2,7.8,3.3,14.9,6.9,21.2,4.6,8,9.2,15.9,13.7,23.9,0,0,0,0,0,0,.9,1.5-.3,3.4-2,3.4h-12.6c0,3.2,0,5.9,0,8.5,0,10,.1,20,.1,30,0,5.2-3.1,8.7-7.3,8.6-3.9,0-6.2-3-6.2-8.3,0-11.2.2-22.4.2-33.6,0,0,0,0,0,0,0-2.5-3.8-2.7-4.2-.2,0,.2,0,.3,0,.5-.3,11.7-.4,23.4-.6,35.1,0,3.9-2.4,6.1-6,6.3-3.6.2-6-2-6.8-5.6-.3-1.6-.3-3.4-.3-5.1,0-9.5,0-19,0-28.5,0-2.2,0-4.4,0-7.1h-13.8c-1.7,0-2.8-1.9-2-3.4,3.5-6.3,6.9-12.5,10.4-18.8,2.3-4.2,5.2-8.3,7.5-12.5,2.4-4.3,3.3-8.8,4-13.7,0-.6-.3-1.3-.9-1.4,0,0,0,0,0,0-.6-.1-1.2.2-1.5.7-2.1,5-4.2,10-6.3,15.1-1.2,3-2.4,6-3.7,8.9-1.8,3.8-5,4.6-8.5,3.2-3.3-1.3-4.5-4.4-3.4-7.6,3.9-10.7,7.8-21.3,12.2-31.8,2-4.8,6.3-7,11.5-7.1,6.1-.2,12.2-.3,18.3-.2,5.7,0,10.5,2.5,12.8,7.7,4.5,10,8.6,20.3,12.6,30.6,1.5,3.9-.2,7-4.2,8.5-4.2,1.6-6.6-.3-8.2-4.3-2.7-6.8-5.6-13.5-8.5-20.2-.4-.9-.8-1.8-1.4-2.8Z" fill="#c8a96e"/>
    <path d="M106.3,85c-10.2-10.9-19.9-21.4-29.6-31.8-4.4-4.8-7-10.4-6.7-17,.4-8.8,3.9-15.9,12.4-19.4,9.4-3.9,17.9-2,25,5.1,3.4-2,6.5-4.4,10-5.8,8.3-3.2,17.8-.7,23.2,5.6,6,7,7.4,17.2,2.5,25.1-3.2,5.1-7.3,9.8-11.6,14.1-7.6,7.7-15.6,15-25.3,24.2Z" fill="#c8a96e"/>
    <path d="M133.1,126c-.9,1.2-3,1.9-6.9,3-3.7,1.1-4.6,3-4.6,6.5.2,15.4.2,30.9.3,46.3,0,1.7.1,3.4,0,5.1-.4,3.8-2.7,6-6.3,6-3.8,0-5.9-2.4-5.9-6.2,0-7,0-14,0-21.1,0-1.7-1.6-3.1-3.3-2.8-1.4.3-1.9,1.6-1.9,4,.1,6.1,0,12.2,0,18.3,0,4.2-1.1,7.5-5.9,7.8-3.8.2-6.4-3.1-6.4-8.1,0-15.1.2-30.2.1-45.3,0-8.9,2.2-8.3-8.2-11.5-1.8-.6-3.2-1.2-4-2.2.6-.8,1.1-1.6,1.5-2.4.9-2.1,1.2-4.4.9-6.8.7-.1,1.5,0,2.4.3,15.1,5.1,30.1,4.5,45.1-.3,0,0,0,0,0,0,0,3.6,1.2,7,3.3,9.3Z" fill="#c8a96e"/>
    <path d="M174.7,26.8c9.2.1,16.2,7.5,16.1,16.9,0,8.8-7.9,16.6-16.7,16.6-9.4,0-16.6-7.2-16.4-16.5.2-10.1,7.2-17.2,17-17Z" fill="#c8a96e"/>
    <path d="M106.5,115.6c-7.2,0-13-5.9-13.1-13.5-.1-7.5,6-14.1,13.1-14.1,7.7,0,13.9,6.3,13.8,14,0,7.2-6.6,13.5-13.8,13.5Z" fill="#c8a96e"/>
    <circle cx="41.8" cy="57.6" r="17.1" fill="#c8a96e"/>
  </g>
</svg>